<svg id="svg" version="1.1" xmlns="http://www.w3.org/2000/svg" xmlns:xlink="http://www.w3.org/1999/xlink" width="400" height="400" viewBox="0, 0, 400,400"><g id="svgg"><path id="path0" d="M183.530 113.680 C 180.491 115.249,177.015 118.577,174.765 122.072 C 172.612 125.417,171.683 125.733,168.515 124.200 C 166.424 123.187,165.544 121.874,165.700 119.999 L 165.820 118.555 162.305 117.327 C 160.371 116.652,157.471 115.632,155.859 115.060 C 146.249 111.646,132.085 113.042,120.417 118.553 C 103.696 126.451,85.844 149.840,84.003 166.264 C 82.744 177.491,91.661 187.606,99.422 183.754 C 102.602 182.176,103.969 176.265,101.646 174.137 C 94.876 167.932,93.785 159.987,99.294 157.000 L 101.758 155.664 108.008 155.675 C 117.768 155.692,120.706 157.155,120.699 161.994 C 120.693 166.420,119.384 168.479,113.099 173.956 L 111.550 175.307 112.212 177.408 C 113.757 182.311,115.985 184.204,121.397 185.213 C 130.046 186.825,137.739 182.793,140.846 175.020 C 142.200 171.630,142.355 171.484,144.598 171.484 C 149.197 171.484,150.749 174.400,148.859 179.492 C 145.530 188.465,143.003 192.847,137.897 198.501 C 134.914 201.803,134.838 201.671,139.551 201.367 C 159.578 200.076,177.238 188.613,185.159 171.762 C 187.358 167.083,188.456 172.381,186.664 179.023 C 182.504 194.438,167.139 207.360,149.366 210.390 C 144.453 211.227,133.082 211.002,129.262 209.992 L 126.688 209.311 124.105 211.266 C 122.685 212.341,121.217 213.392,120.843 213.601 C 119.398 214.410,125.353 227.035,130.041 233.101 C 135.422 240.063,148.029 250.949,148.612 249.137 C 148.701 248.860,149.073 246.963,149.437 244.922 C 152.081 230.109,152.898 226.953,154.089 226.953 C 155.083 226.953,155.925 228.688,157.306 233.588 C 159.165 240.183,158.337 257.968,155.688 268.359 C 153.381 277.410,153.526 277.195,147.449 280.650 C 144.590 282.275,141.402 284.374,140.364 285.315 L 138.477 287.025 140.039 287.422 C 145.305 288.762,156.066 288.198,159.961 286.379 C 167.867 282.686,182.474 262.737,188.152 247.880 C 188.897 245.931,190.372 241.842,191.430 238.793 C 198.615 218.094,206.898 207.397,219.727 202.246 L 222.852 200.991 230.469 200.984 C 238.091 200.977,240.332 201.253,243.848 202.634 C 245.534 203.297,245.861 204.548,244.434 204.873 C 243.950 204.983,241.801 205.444,239.657 205.897 C 229.702 208.003,222.843 211.815,215.969 219.062 C 201.961 233.832,202.576 258.230,217.236 269.322 C 219.723 271.204,221.648 272.204,227.539 274.672 C 230.611 275.959,230.666 276.007,230.787 277.471 C 231.019 280.283,229.927 280.638,219.141 281.252 C 214.883 281.494,209.805 282.032,207.627 282.470 C 200.907 283.822,192.412 287.560,194.344 288.315 C 195.942 288.939,245.180 288.728,247.657 288.086 C 268.514 282.681,286.325 253.290,284.585 227.148 C 282.213 191.515,256.247 161.949,220.449 154.123 C 206.270 151.023,203.247 150.090,197.082 146.914 C 193.407 145.020,192.093 144.544,189.942 144.323 C 183.780 143.690,181.553 139.975,184.863 135.855 C 193.152 125.540,195.403 120.413,193.382 116.451 C 191.322 112.412,187.868 111.440,183.530 113.680 M105.484 140.641 C 109.003 144.160,106.250 153.125,101.651 153.125 C 98.384 153.125,97.107 149.401,98.623 144.296 C 99.772 140.427,103.360 138.516,105.484 140.641 M148.047 142.969 C 152.066 145.831,152.070 153.813,148.053 156.543 C 142.458 160.345,135.994 153.520,138.490 146.447 C 139.998 142.171,144.584 140.503,148.047 142.969 M175.000 284.961 C 174.051 285.928,173.363 286.719,173.470 286.719 C 173.578 286.719,174.442 285.928,175.391 284.961 C 176.339 283.994,177.028 283.203,176.920 283.203 C 176.813 283.203,175.949 283.994,175.000 284.961 " stroke="none" fill="#b47444" fill-rule="evenodd"></path><path id="path1" d="M113.537 102.219 C 113.436 102.320,113.117 102.450,112.829 102.507 C 111.019 102.870,110.087 103.305,109.742 103.951 C 109.525 104.356,109.179 104.688,108.974 104.688 C 108.450 104.688,106.641 106.309,106.641 106.778 C 106.641 106.991,106.381 107.452,106.064 107.802 C 105.747 108.153,105.408 108.870,105.312 109.395 C 105.215 109.921,105.110 110.352,105.077 110.352 C 104.560 110.352,104.204 117.084,104.705 117.394 C 104.902 117.515,104.898 118.000,104.698 118.528 C 104.505 119.036,104.453 119.557,104.582 119.686 C 104.712 119.816,104.530 119.922,104.178 119.922 C 103.827 119.922,103.149 120.449,102.673 121.094 C 102.196 121.738,101.588 122.266,101.320 122.266 C 101.053 122.266,100.459 122.793,100.000 123.438 C 99.541 124.082,98.903 124.609,98.583 124.609 C 98.263 124.609,98.109 124.785,98.242 125.000 C 98.375 125.215,98.286 125.391,98.045 125.391 C 97.535 125.391,95.516 127.687,95.490 128.297 C 95.480 128.525,95.261 128.667,95.002 128.613 C 94.743 128.560,94.575 128.674,94.629 128.867 C 94.683 129.061,94.551 129.275,94.336 129.344 C 93.859 129.497,92.292 131.322,92.258 131.765 C 92.244 131.940,91.652 132.596,90.941 133.223 C 90.230 133.850,89.806 134.365,89.998 134.369 C 90.191 134.372,89.894 134.796,89.339 135.311 C 88.784 135.825,88.420 136.336,88.530 136.447 C 88.640 136.557,88.366 136.763,87.921 136.904 C 87.476 137.046,87.004 137.589,86.873 138.112 C 86.741 138.635,86.467 139.063,86.263 139.063 C 86.058 139.063,85.989 139.220,86.108 139.414 C 86.228 139.607,85.889 140.178,85.357 140.683 C 84.824 141.188,84.385 141.840,84.382 142.131 C 84.378 142.422,83.934 143.184,83.396 143.824 C 82.857 144.464,82.516 145.149,82.638 145.346 C 82.759 145.542,82.662 145.703,82.422 145.703 C 82.182 145.703,82.094 145.879,82.227 146.094 C 82.359 146.309,82.271 146.484,82.031 146.484 C 81.791 146.484,81.703 146.660,81.836 146.875 C 81.969 147.090,81.881 147.266,81.641 147.266 C 81.400 147.266,81.313 147.441,81.445 147.656 C 81.578 147.871,81.490 148.047,81.250 148.047 C 81.010 148.047,80.922 148.223,81.055 148.438 C 81.187 148.652,81.110 148.828,80.882 148.828 C 80.655 148.828,80.469 149.169,80.469 149.586 C 80.469 150.003,80.290 150.455,80.072 150.590 C 79.853 150.725,79.764 150.979,79.872 151.155 C 79.981 151.330,79.800 151.698,79.470 151.971 C 79.140 152.245,78.961 152.704,79.072 152.992 C 79.182 153.280,79.140 153.516,78.979 153.516 C 78.818 153.516,78.648 153.971,78.602 154.527 C 78.556 155.083,78.391 155.743,78.235 155.992 C 78.080 156.241,77.901 156.797,77.839 157.227 C 77.776 157.656,77.612 158.271,77.473 158.594 C 77.334 158.916,77.256 159.399,77.299 159.668 C 77.343 159.937,77.191 160.156,76.963 160.156 C 76.733 160.156,76.626 160.591,76.723 161.126 C 76.820 161.660,76.753 162.187,76.575 162.297 C 75.955 162.680,75.868 172.784,76.477 173.549 C 76.685 173.810,76.813 174.463,76.761 175.000 C 76.709 175.537,76.884 176.240,77.151 176.563 C 77.417 176.885,77.754 177.808,77.898 178.613 C 78.042 179.419,78.328 180.078,78.533 180.078 C 78.738 180.078,78.906 180.430,78.906 180.859 C 78.906 181.289,79.082 181.641,79.297 181.641 C 79.512 181.641,79.688 181.877,79.688 182.167 C 79.688 182.630,80.045 183.159,81.633 185.042 C 81.852 185.302,82.031 185.703,82.031 185.933 C 82.031 186.164,82.294 186.453,82.615 186.577 C 82.936 186.700,83.101 186.958,82.983 187.150 C 82.864 187.343,83.040 187.500,83.375 187.500 C 83.710 187.500,83.984 187.764,83.984 188.086 C 83.984 188.408,84.153 188.672,84.360 188.672 C 84.566 188.672,85.104 189.067,85.554 189.551 C 86.004 190.034,86.524 190.430,86.708 190.430 C 86.893 190.430,87.410 190.852,87.858 191.368 C 88.306 191.885,88.672 192.153,88.672 191.965 C 88.672 191.777,88.948 192.017,89.285 192.498 C 89.626 192.986,90.101 193.256,90.359 193.108 C 90.613 192.963,90.689 192.988,90.529 193.165 C 90.369 193.341,90.669 194.051,91.196 194.742 C 91.723 195.432,92.044 196.107,91.910 196.241 C 91.776 196.375,91.872 196.484,92.122 196.484 C 92.373 196.484,92.539 196.616,92.490 196.777 C 92.316 197.361,93.471 200.781,93.843 200.781 C 94.052 200.781,94.123 201.045,93.999 201.367 C 93.876 201.689,93.955 201.953,94.176 201.953 C 94.397 201.953,94.469 202.129,94.336 202.344 C 94.203 202.559,94.237 202.736,94.411 202.739 C 94.584 202.741,95.078 203.487,95.508 204.396 C 95.938 205.305,96.729 206.460,97.266 206.962 C 97.803 207.465,97.995 207.746,97.694 207.588 C 97.332 207.399,97.240 207.455,97.424 207.752 C 97.577 208.000,97.936 208.203,98.221 208.203 C 98.507 208.203,99.150 208.717,99.650 209.346 C 100.150 209.974,100.699 210.403,100.869 210.298 C 101.038 210.193,101.282 210.381,101.411 210.715 C 101.539 211.050,101.788 211.235,101.963 211.127 C 102.138 211.019,102.559 211.208,102.898 211.548 C 103.238 211.887,103.516 212.050,103.516 211.910 C 103.516 211.770,104.116 212.026,104.849 212.479 C 105.583 212.933,106.330 213.273,106.509 213.235 C 107.089 213.113,110.155 213.764,110.186 214.015 C 110.203 214.148,110.297 214.609,110.396 215.039 C 110.495 215.469,110.639 217.314,110.716 219.141 C 110.793 220.967,110.878 222.461,110.906 222.461 C 110.934 222.461,111.042 223.691,111.146 225.195 C 111.251 226.699,111.399 228.369,111.475 228.906 C 111.747 230.837,112.227 234.984,112.311 236.133 C 112.357 236.777,112.441 237.305,112.496 237.305 C 112.551 237.305,112.648 238.008,112.711 238.867 C 112.774 239.727,112.936 241.396,113.073 242.578 C 113.511 246.381,113.611 259.542,113.206 260.041 C 112.995 260.301,112.924 260.676,113.048 260.876 C 113.172 261.076,113.013 261.455,112.695 261.719 C 112.378 261.982,112.217 262.358,112.338 262.553 C 112.596 262.972,111.664 265.234,111.233 265.234 C 111.070 265.234,110.975 265.366,111.020 265.527 C 111.157 266.012,110.003 267.578,109.509 267.578 C 109.256 267.578,108.991 267.716,108.919 267.886 C 108.584 268.676,105.486 270.760,105.048 270.489 C 104.751 270.306,104.667 270.353,104.827 270.613 C 105.059 270.988,101.425 272.656,100.376 272.656 C 100.169 272.656,100.000 272.832,100.000 273.047 C 100.000 273.262,99.603 273.438,99.117 273.438 C 98.632 273.438,98.015 273.789,97.747 274.219 C 97.479 274.648,97.056 275.000,96.807 275.000 C 96.344 275.000,95.851 275.397,94.141 277.151 C 92.324 279.012,91.861 279.622,92.090 279.850 C 92.215 279.976,92.130 280.078,91.900 280.078 C 91.482 280.078,90.621 281.928,90.355 283.398 C 90.004 285.340,89.979 287.500,90.309 287.500 C 90.508 287.500,90.572 287.661,90.450 287.857 C 90.172 288.308,92.824 289.979,93.325 289.670 C 93.529 289.543,93.801 289.611,93.930 289.818 C 94.315 290.442,114.767 290.270,116.309 289.629 C 117.007 289.340,117.583 289.225,117.590 289.375 C 117.597 289.526,117.781 289.341,118.000 288.965 C 118.219 288.589,118.578 288.281,118.798 288.281 C 119.251 288.281,126.758 280.904,126.758 280.460 C 126.758 280.302,127.637 279.341,128.711 278.325 C 129.785 277.309,130.400 276.619,130.078 276.792 C 129.756 276.965,130.283 276.304,131.250 275.324 C 133.291 273.254,134.198 272.173,134.135 271.885 C 134.110 271.772,134.417 271.450,134.818 271.169 C 135.219 270.889,135.547 270.425,135.547 270.140 C 135.547 269.855,136.002 269.323,136.557 268.959 C 137.113 268.595,137.468 268.197,137.346 268.075 C 137.223 267.952,137.604 267.439,138.191 266.934 C 138.778 266.430,139.107 266.016,138.922 266.016 C 138.737 266.016,139.000 265.670,139.508 265.247 C 140.015 264.825,140.292 264.473,140.123 264.466 C 139.954 264.459,140.178 264.058,140.620 263.574 C 141.063 263.091,141.728 262.291,142.099 261.797 C 142.845 260.805,145.313 260.176,145.313 260.979 C 145.312 261.243,145.428 261.343,145.570 261.201 C 145.923 260.848,146.918 261.723,146.652 262.154 C 146.535 262.344,146.654 262.500,146.917 262.500 C 147.180 262.500,147.293 262.603,147.167 262.729 C 147.042 262.854,147.119 263.473,147.339 264.104 C 147.628 264.934,147.610 265.405,147.273 265.811 C 147.017 266.120,146.914 266.543,147.043 266.753 C 147.172 266.962,147.122 267.230,146.930 267.349 C 146.739 267.467,146.582 268.037,146.582 268.615 C 146.582 269.193,146.290 269.879,145.933 270.140 C 145.575 270.402,145.332 270.767,145.393 270.952 C 145.543 271.415,143.321 273.850,142.955 273.624 C 142.793 273.524,142.559 273.705,142.436 274.026 C 142.313 274.347,141.964 274.609,141.662 274.609 C 141.359 274.609,140.894 274.871,140.629 275.191 C 140.363 275.511,139.989 275.676,139.797 275.557 C 139.605 275.438,139.343 275.615,139.214 275.950 C 139.086 276.284,138.822 276.460,138.628 276.340 C 138.434 276.220,138.171 276.396,138.042 276.731 C 137.914 277.065,137.670 277.253,137.500 277.148 C 137.330 277.043,137.090 277.220,136.967 277.541 C 136.844 277.862,136.543 278.125,136.299 278.125 C 136.055 278.125,135.509 278.564,135.086 279.102 C 134.664 279.639,134.079 280.078,133.787 280.078 C 133.495 280.078,132.858 280.649,132.370 281.348 C 131.883 282.046,131.256 282.758,130.977 282.930 C 130.697 283.101,130.469 283.422,130.469 283.641 C 130.469 283.861,130.195 284.314,129.860 284.649 C 129.526 284.983,129.344 285.498,129.457 285.793 C 129.570 286.087,129.482 286.328,129.262 286.328 C 129.041 286.328,128.974 286.512,129.112 286.736 C 129.251 286.960,129.172 287.375,128.938 287.657 C 128.443 288.253,128.031 292.652,128.441 292.958 C 128.593 293.071,129.173 293.867,129.730 294.727 L 130.742 296.289 145.168 296.408 C 157.408 296.509,159.765 296.438,160.726 295.940 C 161.349 295.617,162.002 295.442,162.179 295.551 C 162.356 295.660,162.500 295.606,162.500 295.431 C 162.500 295.256,163.071 294.869,163.770 294.570 C 164.468 294.272,165.513 293.526,166.091 292.913 C 166.670 292.299,167.311 291.797,167.516 291.797 C 167.720 291.797,168.468 291.138,169.178 290.332 C 169.887 289.526,170.608 288.911,170.781 288.965 C 170.953 289.019,171.050 288.931,170.996 288.770 C 170.942 288.608,171.037 288.439,171.207 288.394 C 171.376 288.348,172.835 286.942,174.447 285.269 C 176.060 283.596,177.560 282.275,177.781 282.334 C 178.002 282.393,178.089 282.289,177.974 282.103 C 177.859 281.917,178.290 281.376,178.932 280.902 C 179.575 280.427,180.015 279.902,179.912 279.735 C 179.809 279.568,180.510 278.774,181.471 277.971 C 182.432 277.168,183.116 276.347,182.992 276.146 C 182.868 275.946,182.942 275.781,183.157 275.781 C 183.372 275.781,183.664 275.969,183.806 276.199 C 183.947 276.428,184.304 276.524,184.597 276.411 C 184.891 276.298,185.237 276.377,185.366 276.586 C 185.495 276.795,185.752 276.872,185.938 276.758 C 186.123 276.643,186.380 276.721,186.509 276.930 C 186.638 277.139,186.984 277.217,187.278 277.105 C 187.571 276.992,187.923 277.080,188.059 277.300 C 188.195 277.520,188.531 277.614,188.807 277.508 C 189.082 277.403,189.608 277.648,189.975 278.055 C 190.653 278.803,188.308 282.031,187.087 282.031 C 186.859 282.031,186.781 282.207,186.914 282.422 C 187.047 282.637,186.940 282.813,186.677 282.813 C 186.413 282.813,186.292 282.907,186.407 283.022 C 186.522 283.136,186.112 283.770,185.497 284.428 C 184.882 285.087,184.476 285.784,184.595 285.977 C 184.714 286.170,184.615 286.328,184.375 286.328 C 184.135 286.328,184.016 286.460,184.111 286.621 C 184.206 286.782,184.099 287.354,183.873 287.891 C 183.118 289.688,183.173 293.574,183.965 294.390 C 186.399 296.900,183.039 296.680,218.928 296.680 C 240.675 296.680,251.594 296.546,252.131 296.272 C 253.669 295.486,257.242 294.889,258.984 295.126 C 268.863 296.468,293.041 297.147,302.539 296.347 C 304.473 296.185,306.758 296.003,307.617 295.943 C 308.477 295.883,309.355 295.785,309.570 295.725 C 309.785 295.666,310.366 295.650,310.861 295.691 C 311.355 295.731,311.971 295.599,312.228 295.396 C 312.683 295.038,313.337 294.918,315.137 294.865 C 315.620 294.851,316.016 294.670,316.016 294.464 C 316.016 294.257,316.367 294.200,316.797 294.336 C 317.265 294.484,317.578 294.406,317.578 294.141 C 317.578 293.875,317.891 293.797,318.359 293.945 C 318.827 294.094,319.141 294.016,319.141 293.750 C 319.141 293.484,319.454 293.406,319.922 293.555 C 320.387 293.702,320.703 293.625,320.703 293.363 C 320.703 293.121,320.860 293.020,321.052 293.138 C 321.354 293.325,323.501 292.725,325.391 291.927 C 325.713 291.791,326.328 291.613,326.758 291.532 C 327.188 291.450,327.596 291.219,327.665 291.017 C 327.734 290.815,328.394 290.537,329.130 290.399 C 329.866 290.260,330.469 289.981,330.469 289.777 C 330.469 289.574,330.645 289.516,330.859 289.648 C 331.074 289.781,331.250 289.693,331.250 289.453 C 331.250 289.213,331.426 289.125,331.641 289.258 C 331.855 289.391,332.031 289.303,332.031 289.063 C 332.031 288.822,332.193 288.726,332.390 288.848 C 332.588 288.970,333.015 288.804,333.339 288.480 C 333.663 288.156,334.117 287.891,334.347 287.891 C 334.577 287.891,334.766 287.704,334.766 287.477 C 334.766 287.249,334.943 287.173,335.159 287.306 C 335.375 287.440,335.657 287.276,335.786 286.941 C 335.914 286.606,336.178 286.431,336.372 286.550 C 336.566 286.670,336.829 286.494,336.958 286.160 C 337.086 285.825,337.350 285.649,337.544 285.769 C 337.738 285.889,338.002 285.712,338.130 285.376 C 338.259 285.040,338.615 284.766,338.921 284.766 C 339.227 284.766,339.584 284.488,339.714 284.150 C 339.844 283.811,340.376 283.372,340.897 283.174 C 341.418 282.976,341.732 282.633,341.596 282.413 C 341.460 282.192,341.508 282.060,341.703 282.119 C 341.898 282.178,342.746 281.534,343.587 280.688 C 344.429 279.842,344.854 279.284,344.531 279.448 C 344.209 279.612,344.297 279.461,344.727 279.114 C 345.156 278.766,345.508 278.307,345.508 278.094 C 345.508 277.881,345.701 277.580,345.938 277.427 C 346.572 277.016,347.266 275.558,347.266 274.635 C 347.266 274.191,347.429 273.828,347.629 273.828 C 348.065 273.828,348.041 265.668,347.604 265.397 C 347.437 265.294,347.399 264.951,347.520 264.636 C 347.641 264.321,347.535 264.062,347.284 264.063 C 347.034 264.063,346.930 263.899,347.054 263.699 C 347.177 263.499,347.097 263.223,346.875 263.086 C 346.653 262.949,346.573 262.673,346.696 262.473 C 346.820 262.273,346.735 262.109,346.507 262.109 C 346.280 262.109,346.094 261.858,346.094 261.551 C 346.094 261.244,345.818 260.717,345.480 260.379 C 345.142 260.042,345.010 259.760,345.187 259.753 C 345.363 259.746,345.227 259.527,344.883 259.265 C 344.540 259.003,344.236 258.654,344.208 258.488 C 344.142 258.099,343.360 257.149,342.422 256.320 C 342.013 255.959,341.354 255.356,340.957 254.980 C 340.560 254.604,340.077 254.297,339.886 254.297 C 339.694 254.297,339.431 254.022,339.302 253.686 C 339.173 253.350,338.891 253.185,338.675 253.319 C 338.458 253.452,338.281 253.376,338.281 253.148 C 338.281 252.921,338.018 252.734,337.695 252.734 C 337.373 252.734,337.109 252.570,337.109 252.370 C 337.109 252.073,336.058 251.534,335.156 251.370 C 335.049 251.350,334.434 251.058,333.789 250.721 C 333.145 250.383,332.397 250.186,332.129 250.281 C 331.860 250.377,331.641 250.246,331.641 249.991 C 331.641 249.735,331.398 249.619,331.102 249.732 C 330.806 249.846,330.411 249.789,330.223 249.605 C 329.906 249.293,328.637 249.058,324.805 248.599 C 321.253 248.173,310.687 248.189,308.376 248.623 C 307.036 248.875,305.659 249.040,305.315 248.989 C 304.972 248.939,304.590 249.061,304.467 249.260 C 304.344 249.459,304.072 249.516,303.862 249.387 C 303.653 249.257,303.244 249.349,302.954 249.589 C 302.663 249.830,302.276 250.000,302.092 249.967 C 301.908 249.934,301.670 249.942,301.563 249.984 C 301.167 250.138,299.774 250.438,298.674 250.606 C 298.052 250.701,297.313 250.971,297.031 251.204 C 296.749 251.438,296.335 251.516,296.111 251.378 C 295.887 251.239,295.703 251.331,295.703 251.581 C 295.703 251.832,295.439 251.936,295.117 251.812 C 294.795 251.688,294.531 251.776,294.531 252.007 C 294.531 252.238,294.280 252.331,293.974 252.213 C 293.667 252.096,293.211 252.247,292.960 252.550 C 292.709 252.852,292.388 253.085,292.248 253.066 C 292.107 253.048,291.904 253.067,291.797 253.109 C 290.541 253.598,290.177 253.411,290.444 252.412 C 290.597 251.837,290.728 251.104,290.733 250.781 C 290.739 250.459,290.875 250.107,291.036 250.000 C 291.196 249.893,291.436 249.125,291.568 248.294 C 291.699 247.464,291.901 246.633,292.015 246.448 C 292.129 246.263,292.309 245.537,292.415 244.833 C 292.521 244.130,292.699 243.115,292.811 242.578 C 292.924 242.041,293.058 241.069,293.111 240.418 C 293.164 239.767,293.302 239.064,293.418 238.856 C 293.825 238.127,293.396 220.898,292.971 220.898 C 292.880 220.898,292.600 218.605,292.555 217.488 C 292.541 217.116,292.371 216.715,292.180 216.597 C 291.988 216.478,291.919 216.152,292.026 215.872 C 292.134 215.592,291.960 214.587,291.640 213.638 C 291.027 211.821,290.587 209.963,290.537 208.984 C 290.520 208.662,290.368 208.307,290.199 208.195 C 289.859 207.970,289.379 206.050,289.394 204.980 C 289.400 204.604,289.210 204.297,288.973 204.297 C 288.736 204.297,288.657 204.181,288.799 204.040 C 288.940 203.898,288.860 203.547,288.621 203.259 C 288.381 202.970,288.317 202.734,288.477 202.734 C 288.637 202.734,288.549 202.471,288.281 202.148 C 288.014 201.826,287.948 201.560,288.136 201.557 C 288.323 201.553,288.268 201.418,288.012 201.255 C 287.757 201.093,287.458 200.465,287.348 199.860 C 287.239 199.255,286.966 198.540,286.742 198.270 C 286.518 198.000,286.451 197.664,286.592 197.523 C 286.733 197.381,286.634 197.266,286.370 197.266 C 286.107 197.266,286.005 197.082,286.143 196.858 C 286.282 196.634,286.078 195.974,285.689 195.393 C 285.300 194.812,285.022 194.204,285.069 194.043 C 285.117 193.882,284.970 193.750,284.743 193.750 C 284.515 193.750,284.438 193.574,284.570 193.359 C 284.703 193.145,284.637 192.969,284.424 192.969 C 284.036 192.969,283.371 191.467,283.516 190.918 C 283.559 190.757,283.408 190.625,283.180 190.625 C 282.953 190.625,282.866 190.463,282.988 190.266 C 283.110 190.068,282.939 189.635,282.607 189.303 C 282.275 188.971,282.054 188.611,282.115 188.503 C 282.176 188.395,281.921 187.949,281.547 187.513 C 281.173 187.076,280.960 186.719,281.074 186.719 C 281.187 186.719,280.928 186.341,280.497 185.878 C 280.067 185.416,279.807 184.889,279.919 184.706 C 280.032 184.524,279.938 184.375,279.711 184.375 C 279.483 184.375,279.297 184.204,279.297 183.996 C 279.297 183.503,276.931 180.031,276.172 179.410 C 275.850 179.147,275.729 178.926,275.903 178.919 C 276.077 178.912,275.638 178.356,274.926 177.683 C 274.215 177.010,273.896 176.602,274.219 176.777 C 274.541 176.952,273.989 176.283,272.991 175.289 C 271.994 174.296,271.291 173.357,271.429 173.203 C 271.567 173.048,271.486 173.032,271.248 173.168 C 271.011 173.303,270.396 172.951,269.881 172.386 C 269.366 171.821,269.209 171.505,269.531 171.684 C 269.905 171.891,269.847 171.702,269.373 171.161 C 268.964 170.694,268.392 170.312,268.104 170.312 C 267.815 170.312,267.622 170.120,267.676 169.886 C 267.729 169.651,267.422 169.255,266.992 169.007 C 266.563 168.758,265.269 167.588,264.118 166.406 C 262.967 165.225,261.912 164.256,261.774 164.255 C 261.636 164.253,260.842 163.587,260.010 162.775 C 258.241 161.050,255.631 159.203,254.431 158.828 C 253.967 158.683,253.485 158.296,253.359 157.968 C 253.233 157.640,252.953 157.482,252.737 157.615 C 252.521 157.749,252.344 157.672,252.344 157.445 C 252.344 157.217,252.119 157.031,251.845 157.031 C 251.570 157.031,251.038 156.672,250.662 156.233 C 250.287 155.795,249.808 155.541,249.599 155.670 C 249.390 155.800,249.219 155.709,249.219 155.469 C 249.219 155.229,249.066 155.126,248.880 155.241 C 248.694 155.356,248.231 155.107,247.852 154.688 C 247.472 154.268,247.009 154.019,246.823 154.134 C 246.637 154.249,246.484 154.146,246.484 153.906 C 246.484 153.666,246.309 153.578,246.094 153.711 C 245.879 153.844,245.703 153.756,245.703 153.516 C 245.703 153.275,245.527 153.188,245.313 153.320 C 245.098 153.453,244.922 153.365,244.922 153.125 C 244.922 152.885,244.746 152.797,244.531 152.930 C 244.316 153.062,244.141 152.975,244.141 152.734 C 244.141 152.494,243.965 152.406,243.750 152.539 C 243.535 152.672,243.359 152.594,243.359 152.367 C 243.359 152.139,243.228 151.972,243.066 151.995 C 242.513 152.075,241.016 151.471,241.016 151.169 C 241.016 150.819,239.105 150.224,238.374 150.345 C 238.102 150.390,237.776 150.156,237.649 149.825 C 237.522 149.494,237.261 149.320,237.068 149.439 C 236.876 149.558,236.506 149.524,236.247 149.364 C 235.988 149.204,235.344 149.026,234.818 148.970 C 234.291 148.914,233.756 148.727,233.629 148.555 C 233.502 148.383,232.967 148.194,232.439 148.135 C 231.911 148.076,231.381 147.868,231.260 147.672 C 231.139 147.477,230.567 147.253,229.988 147.176 C 229.409 147.098,228.824 146.923,228.688 146.786 C 228.551 146.650,228.193 146.633,227.891 146.748 C 227.590 146.864,227.344 146.749,227.344 146.494 C 227.344 146.238,227.124 146.106,226.855 146.200 C 226.587 146.295,225.928 146.206,225.391 146.003 C 224.854 145.800,223.810 145.555,223.072 145.460 C 222.333 145.365,221.526 145.118,221.278 144.913 C 221.030 144.707,220.228 144.461,219.495 144.366 C 218.763 144.271,218.120 144.160,218.066 144.118 C 218.013 144.077,217.793 143.999,217.578 143.945 C 217.363 143.892,217.056 143.805,216.895 143.753 C 216.733 143.700,216.482 143.674,216.336 143.695 C 216.190 143.715,215.596 143.486,215.018 143.186 C 214.439 142.886,213.723 142.733,213.428 142.846 C 213.132 142.960,212.891 142.839,212.891 142.578 C 212.891 142.317,212.627 142.205,212.305 142.329 C 211.982 142.452,211.719 142.393,211.719 142.198 C 211.719 142.002,211.367 141.909,210.938 141.992 C 210.508 142.075,210.156 141.967,210.156 141.751 C 210.156 141.536,210.002 141.455,209.814 141.571 C 209.368 141.847,205.749 140.626,205.377 140.074 C 205.219 139.840,205.087 139.802,205.084 139.989 C 205.081 140.177,204.842 140.134,204.554 139.895 C 204.266 139.656,203.914 139.576,203.773 139.717 C 203.631 139.858,203.516 139.797,203.516 139.581 C 203.516 139.364,202.813 138.955,201.953 138.672 C 201.094 138.388,200.391 137.998,200.391 137.805 C 200.391 137.612,200.230 137.553,200.033 137.675 C 199.837 137.796,199.617 137.763,199.545 137.600 C 199.473 137.438,198.887 137.009,198.242 136.648 C 196.785 135.831,196.575 134.946,197.579 133.852 C 198.005 133.388,198.830 132.085,199.413 130.957 C 199.996 129.829,200.613 128.906,200.784 128.906 C 200.955 128.906,201.279 128.379,201.504 127.734 C 201.729 127.090,201.812 126.563,201.690 126.563 C 201.567 126.563,201.663 126.327,201.902 126.038 C 202.141 125.750,202.226 125.403,202.089 125.266 C 201.953 125.130,202.087 124.724,202.386 124.363 C 203.315 123.243,203.117 115.818,202.105 113.867 C 201.659 113.008,201.370 112.085,201.461 111.816 C 201.553 111.548,201.437 111.328,201.204 111.328 C 200.972 111.328,200.781 111.064,200.781 110.742 C 200.781 110.420,200.605 110.156,200.391 110.156 C 200.176 110.156,200.021 110.024,200.046 109.863 C 200.175 109.049,199.940 108.594,199.391 108.594 C 199.056 108.594,198.891 108.418,199.023 108.203 C 199.156 107.988,199.024 107.813,198.729 107.813 C 198.434 107.813,197.694 107.291,197.084 106.655 C 196.473 106.018,195.825 105.589,195.643 105.701 C 195.461 105.813,195.313 105.709,195.313 105.469 C 195.313 105.229,195.137 105.141,194.922 105.273 C 194.707 105.406,194.531 105.318,194.531 105.078 C 194.531 104.838,194.368 104.743,194.168 104.866 C 193.968 104.990,193.686 104.900,193.542 104.667 C 193.398 104.434,193.040 104.336,192.746 104.448 C 192.453 104.561,192.113 104.492,191.991 104.295 C 191.727 103.868,183.629 103.924,183.362 104.355 C 183.261 104.519,182.938 104.561,182.644 104.448 C 182.351 104.336,181.999 104.424,181.863 104.644 C 181.727 104.864,181.358 104.945,181.042 104.824 C 180.727 104.703,180.469 104.809,180.469 105.059 C 180.469 105.310,180.293 105.406,180.078 105.273 C 179.863 105.141,179.688 105.229,179.688 105.469 C 179.688 105.709,179.512 105.797,179.297 105.664 C 179.082 105.531,178.906 105.619,178.906 105.859 C 178.906 106.100,178.730 106.187,178.516 106.055 C 178.301 105.922,178.125 106.010,178.125 106.250 C 178.125 106.490,177.954 106.581,177.745 106.452 C 177.536 106.323,177.065 106.567,176.699 106.995 C 176.332 107.422,175.903 107.692,175.744 107.594 C 175.586 107.496,174.928 107.945,174.282 108.591 C 173.636 109.237,172.957 109.766,172.773 109.766 C 172.589 109.766,172.124 110.133,171.739 110.583 C 171.124 111.302,170.960 111.333,170.383 110.843 C 169.733 110.290,167.508 109.296,166.911 109.292 C 166.741 109.290,166.118 108.945,165.527 108.524 C 164.937 108.104,164.453 107.881,164.453 108.029 C 164.453 108.177,164.233 108.126,163.965 107.914 C 163.449 107.508,161.744 107.003,160.225 106.805 C 159.725 106.741,159.062 106.476,158.750 106.218 C 158.439 105.959,158.077 105.855,157.947 105.985 C 157.817 106.116,157.412 106.063,157.048 105.868 C 156.684 105.673,155.520 105.409,154.462 105.282 C 153.405 105.154,151.660 104.941,150.586 104.808 C 147.816 104.466,138.020 104.561,137.417 104.936 C 137.141 105.109,136.475 105.290,135.938 105.340 C 133.952 105.524,132.193 105.827,130.986 106.193 C 130.304 106.400,129.654 106.477,129.542 106.364 C 129.429 106.252,128.765 106.359,128.067 106.602 C 127.017 106.968,126.739 106.942,126.465 106.452 C 126.282 106.126,125.897 105.859,125.608 105.859 C 125.320 105.859,124.978 105.585,124.849 105.249 C 124.720 104.913,124.438 104.747,124.222 104.881 C 124.005 105.015,123.828 104.976,123.828 104.795 C 123.828 104.614,123.301 104.154,122.656 103.773 C 122.012 103.392,121.484 103.200,121.484 103.346 C 121.484 103.492,121.248 103.416,120.960 103.176 C 120.672 102.937,120.320 102.857,120.179 102.998 C 120.038 103.140,119.922 103.061,119.922 102.824 C 119.922 102.586,119.614 102.375,119.238 102.354 C 118.862 102.333,117.467 102.253,116.138 102.175 C 114.808 102.098,113.638 102.117,113.537 102.219 M191.059 112.557 C 191.243 112.848,191.397 112.954,191.400 112.793 C 191.408 112.405,193.164 114.169,193.164 114.565 C 193.164 114.734,193.395 115.015,193.677 115.189 C 195.398 116.253,194.690 125.391,192.887 125.391 C 192.731 125.391,192.693 125.627,192.804 125.916 C 192.915 126.204,192.470 127.014,191.815 127.715 C 191.161 128.415,190.625 129.146,190.625 129.338 C 190.625 129.530,190.317 130.000,189.941 130.382 C 189.174 131.161,187.109 134.231,187.109 134.593 C 187.109 134.722,186.406 135.545,185.545 136.422 C 184.685 137.300,184.068 138.105,184.175 138.211 C 184.281 138.318,184.150 138.669,183.883 138.992 C 183.497 139.461,183.498 139.614,183.887 139.745 C 184.155 139.835,184.375 140.064,184.375 140.253 C 184.375 140.779,186.608 142.949,186.875 142.682 C 187.004 142.553,187.109 142.624,187.109 142.839 C 187.109 143.053,187.329 143.241,187.598 143.256 C 187.866 143.271,188.789 143.406,189.648 143.555 C 190.508 143.705,191.700 143.881,192.297 143.946 C 192.894 144.011,193.645 144.282,193.966 144.549 C 194.287 144.815,194.658 144.925,194.790 144.794 C 194.921 144.662,195.515 144.901,196.110 145.324 C 196.704 145.747,197.308 146.094,197.451 146.094 C 197.595 146.094,197.977 146.359,198.302 146.683 C 198.626 147.008,199.053 147.173,199.250 147.051 C 199.448 146.929,199.609 147.025,199.609 147.266 C 199.609 147.506,199.785 147.594,200.000 147.461 C 200.215 147.328,200.391 147.416,200.391 147.656 C 200.391 147.896,200.566 147.984,200.781 147.852 C 200.996 147.719,201.172 147.807,201.172 148.047 C 201.172 148.287,201.348 148.375,201.563 148.242 C 201.777 148.109,201.953 148.197,201.953 148.438 C 201.953 148.678,202.117 148.773,202.317 148.649 C 202.517 148.526,202.793 148.606,202.930 148.828 C 203.067 149.050,203.343 149.130,203.543 149.007 C 203.743 148.883,203.906 148.987,203.906 149.237 C 203.906 149.488,204.148 149.600,204.444 149.487 C 204.739 149.373,205.474 149.536,206.076 149.849 C 206.679 150.161,207.785 150.515,208.534 150.634 C 209.283 150.753,210.306 151.006,210.807 151.197 C 211.309 151.387,211.719 151.438,211.719 151.310 C 211.719 151.181,211.962 151.278,212.259 151.525 C 212.557 151.772,213.443 151.998,214.229 152.027 C 215.015 152.057,215.751 152.231,215.864 152.414 C 215.977 152.597,216.233 152.646,216.433 152.522 C 216.633 152.399,217.014 152.432,217.278 152.595 C 217.543 152.759,218.026 152.934,218.353 152.984 C 218.679 153.035,219.473 153.183,220.117 153.314 C 220.762 153.445,221.958 153.632,222.775 153.730 C 223.592 153.828,224.784 154.179,225.423 154.509 C 226.062 154.840,226.756 155.005,226.965 154.876 C 227.173 154.747,227.344 154.846,227.344 155.097 C 227.344 155.347,227.607 155.451,227.930 155.327 C 228.252 155.204,228.516 155.283,228.516 155.504 C 228.516 155.725,228.671 155.809,228.861 155.692 C 229.285 155.430,231.619 156.183,232.422 156.840 C 232.744 157.104,233.211 157.246,233.460 157.155 C 233.709 157.064,234.027 157.175,234.167 157.401 C 234.307 157.627,234.762 157.813,235.179 157.813 C 235.596 157.813,235.938 157.999,235.938 158.226 C 235.938 158.454,236.113 158.531,236.328 158.398 C 236.543 158.266,236.719 158.343,236.719 158.571 C 236.719 158.798,236.851 158.964,237.012 158.938 C 237.173 158.913,237.437 158.935,237.598 158.987 C 237.759 159.039,238.022 159.113,238.184 159.150 C 239.342 159.419,240.234 159.878,240.234 160.206 C 240.234 160.419,240.390 160.497,240.581 160.379 C 240.771 160.261,241.143 160.425,241.406 160.742 C 241.670 161.060,242.035 161.227,242.218 161.114 C 242.400 161.001,242.877 161.236,243.277 161.637 C 243.948 162.307,245.122 162.971,245.781 163.052 C 245.932 163.071,246.274 163.306,246.543 163.574 C 246.812 163.843,247.265 164.063,247.551 164.063 C 247.837 164.063,248.172 164.325,248.295 164.646 C 248.419 164.967,248.666 165.139,248.845 165.029 C 249.024 164.918,249.313 165.055,249.488 165.334 C 249.953 166.079,253.123 168.481,253.137 168.099 C 253.143 167.920,253.330 168.085,253.552 168.465 C 253.773 168.846,254.105 169.064,254.290 168.950 C 254.474 168.836,255.007 169.228,255.473 169.820 C 255.939 170.413,256.440 170.898,256.585 170.898 C 256.730 170.898,257.530 171.602,258.362 172.461 C 259.194 173.320,259.733 173.773,259.560 173.468 C 259.387 173.162,260.725 174.430,262.533 176.285 C 268.253 182.156,269.531 183.551,269.531 183.926 C 269.531 184.127,269.806 184.397,270.142 184.526 C 270.478 184.655,270.643 184.937,270.510 185.153 C 270.376 185.370,270.432 185.547,270.635 185.547 C 270.838 185.547,271.306 186.008,271.675 186.572 C 272.118 187.247,272.167 187.488,271.818 187.278 C 271.235 186.927,271.833 187.799,273.207 189.303 C 273.623 189.757,274.010 190.457,274.069 190.858 C 274.128 191.259,274.362 191.649,274.588 191.725 C 274.815 191.800,275.000 192.087,275.000 192.363 C 275.000 192.638,275.346 193.303,275.768 193.840 C 276.191 194.378,276.425 194.929,276.289 195.065 C 276.153 195.201,276.241 195.313,276.485 195.313 C 276.729 195.313,276.827 195.576,276.704 195.898 C 276.580 196.221,276.674 196.484,276.911 196.484 C 277.149 196.484,277.344 196.827,277.344 197.246 C 277.344 197.665,277.596 198.149,277.905 198.322 C 278.213 198.495,278.558 199.148,278.672 199.775 C 278.786 200.401,279.076 201.035,279.316 201.184 C 279.557 201.333,279.762 201.611,279.771 201.801 C 279.795 202.310,280.091 203.235,280.449 203.921 C 280.622 204.252,280.888 205.263,281.041 206.169 C 281.215 207.200,281.477 207.718,281.742 207.555 C 282.006 207.391,282.074 207.527,281.924 207.918 C 281.792 208.262,281.835 208.599,282.018 208.666 C 282.201 208.734,282.439 209.316,282.547 209.961 C 282.655 210.605,282.869 211.884,283.024 212.802 C 283.179 213.719,283.461 214.567,283.651 214.684 C 283.842 214.802,283.896 215.061,283.772 215.261 C 283.649 215.461,283.685 215.845,283.852 216.113 C 284.117 216.537,284.302 217.804,284.411 219.922 C 284.427 220.244,284.543 220.771,284.669 221.094 C 285.092 222.178,285.537 233.593,285.156 233.594 C 285.049 233.595,284.925 234.693,284.882 236.036 C 284.721 240.978,284.562 242.577,284.232 242.578 C 284.046 242.578,283.985 242.930,284.097 243.359 C 284.210 243.788,284.159 244.228,283.984 244.336 C 283.810 244.444,283.766 244.911,283.887 245.374 C 284.033 245.931,283.961 246.125,283.676 245.949 C 283.400 245.779,283.299 245.969,283.396 246.474 C 283.480 246.909,283.422 247.266,283.266 247.266 C 283.110 247.266,282.946 247.714,282.900 248.263 C 282.855 248.811,282.647 249.579,282.438 249.969 C 282.230 250.359,282.179 250.799,282.327 250.946 C 282.474 251.094,282.371 251.352,282.098 251.521 C 281.825 251.690,281.573 252.208,281.538 252.672 C 281.503 253.136,281.321 253.516,281.134 253.516 C 280.947 253.516,280.872 253.735,280.966 254.004 C 281.061 254.272,280.800 254.976,280.386 255.566 C 279.973 256.157,279.778 256.643,279.954 256.647 C 280.130 256.650,280.045 256.798,279.766 256.975 C 279.486 257.152,279.229 257.677,279.194 258.141 C 279.159 258.605,278.992 258.984,278.823 258.984 C 278.654 258.984,278.544 259.116,278.578 259.277 C 278.662 259.674,278.056 261.085,277.697 261.332 C 277.537 261.441,277.348 261.792,277.277 262.112 C 277.206 262.431,276.885 262.926,276.563 263.211 C 276.240 263.496,276.194 263.620,276.460 263.485 C 276.779 263.324,276.865 263.448,276.712 263.847 C 276.584 264.180,276.234 264.453,275.935 264.453 C 275.460 264.453,275.198 265.189,275.344 266.113 C 275.370 266.274,275.132 266.406,274.817 266.406 C 274.467 266.406,274.331 266.635,274.468 266.992 C 274.614 267.373,274.458 267.578,274.023 267.578 C 273.589 267.578,273.433 267.784,273.579 268.164 C 273.702 268.486,273.630 268.750,273.417 268.750 C 273.204 268.750,272.815 269.233,272.553 269.824 C 271.988 271.096,271.645 271.565,270.215 273.017 C 269.624 273.617,269.141 274.299,269.141 274.532 C 269.141 274.765,268.745 275.233,268.262 275.571 C 267.778 275.910,267.379 276.315,267.374 276.472 C 267.369 276.629,266.418 277.725,265.260 278.906 C 264.102 280.088,263.283 280.791,263.440 280.469 C 263.597 280.146,263.072 280.586,262.273 281.445 C 261.473 282.305,260.948 282.744,261.105 282.422 C 261.263 282.100,260.956 282.308,260.423 282.885 C 259.891 283.462,259.349 283.829,259.220 283.699 C 259.090 283.570,258.984 283.650,258.984 283.877 C 258.984 284.104,258.545 284.401,258.008 284.535 C 257.471 284.670,257.031 284.953,257.031 285.164 C 257.031 285.374,256.680 285.547,256.250 285.547 C 255.820 285.547,255.469 285.687,255.469 285.857 C 255.469 286.123,252.335 287.601,251.468 287.744 C 251.305 287.771,251.084 287.837,250.977 287.891 C 250.869 287.944,250.605 288.032,250.391 288.086 C 250.176 288.140,249.912 288.228,249.805 288.281 C 249.697 288.335,249.434 288.423,249.219 288.477 C 249.004 288.530,248.784 288.611,248.730 288.656 C 248.018 289.249,192.578 289.205,192.578 288.611 C 192.578 288.455,192.757 288.217,192.975 288.082 C 193.193 287.947,193.271 287.673,193.147 287.473 C 193.024 287.273,193.133 287.109,193.391 287.109 C 193.648 287.109,194.059 286.836,194.304 286.502 C 194.548 286.167,195.007 285.851,195.323 285.799 C 195.640 285.747,196.338 285.456,196.875 285.152 C 197.412 284.848,197.983 284.637,198.145 284.683 C 198.306 284.728,198.438 284.590,198.438 284.375 C 198.438 284.160,198.569 284.013,198.730 284.047 C 198.892 284.082,199.518 283.906,200.123 283.657 C 200.728 283.407,201.534 283.203,201.913 283.203 C 202.293 283.203,202.725 283.082,202.873 282.935 C 203.119 282.689,203.962 282.502,205.469 282.359 C 205.791 282.329,206.145 282.168,206.254 282.002 C 206.434 281.732,207.617 281.553,212.695 281.029 C 213.555 280.941,216.104 280.785,218.359 280.683 C 220.615 280.581,223.252 280.436,224.219 280.362 C 226.599 280.180,230.086 279.234,229.840 278.837 C 229.731 278.660,229.811 278.516,230.019 278.516 C 231.259 278.516,229.318 275.818,228.060 275.794 C 227.702 275.787,227.350 275.611,227.279 275.402 C 227.207 275.193,226.709 274.943,226.172 274.845 C 225.635 274.747,225.151 274.654,225.098 274.638 C 225.044 274.622,224.868 274.583,224.707 274.550 C 224.546 274.518,224.220 274.226,223.982 273.901 C 223.735 273.563,223.276 273.416,222.908 273.557 C 222.555 273.693,222.266 273.623,222.266 273.402 C 222.266 273.181,222.090 273.109,221.875 273.242 C 221.660 273.375,221.484 273.287,221.484 273.047 C 221.484 272.807,221.309 272.719,221.094 272.852 C 220.879 272.984,220.703 272.896,220.703 272.656 C 220.703 272.416,220.527 272.328,220.313 272.461 C 220.098 272.594,219.922 272.506,219.922 272.266 C 219.922 272.025,219.746 271.938,219.531 272.070 C 219.316 272.203,219.141 272.126,219.141 271.898 C 219.141 271.671,218.936 271.484,218.685 271.484 C 218.212 271.484,217.628 270.993,215.555 268.848 C 214.880 268.149,214.063 267.578,213.739 267.578 C 213.416 267.578,213.268 267.461,213.410 267.319 C 213.553 267.176,213.099 266.550,212.401 265.927 C 211.704 265.305,211.133 264.624,211.133 264.415 C 211.133 264.205,210.869 263.867,210.547 263.664 C 210.225 263.460,210.100 263.291,210.269 263.287 C 210.439 263.284,210.219 262.897,209.781 262.426 C 209.343 261.956,208.984 261.253,208.984 260.864 C 208.984 260.475,208.790 260.156,208.552 260.156 C 208.314 260.156,208.215 259.907,208.332 259.603 C 208.449 259.298,208.281 258.948,207.958 258.824 C 207.636 258.700,207.482 258.422,207.615 258.206 C 207.749 257.990,207.643 257.813,207.380 257.813 C 207.116 257.813,207.017 257.697,207.158 257.555 C 207.299 257.414,207.197 257.029,206.930 256.699 C 206.546 256.225,206.546 256.160,206.929 256.391 C 207.258 256.588,207.338 256.487,207.180 256.075 C 207.052 255.742,206.780 255.469,206.576 255.469 C 206.371 255.469,206.325 255.273,206.472 255.034 C 206.620 254.796,206.525 254.467,206.262 254.304 C 205.193 253.644,204.997 239.091,206.024 236.676 C 206.171 236.330,206.358 235.539,206.439 234.918 C 206.520 234.297,206.620 233.701,206.660 233.594 C 206.700 233.486,206.712 233.267,206.687 233.105 C 206.661 232.944,206.835 232.813,207.073 232.813 C 207.316 232.813,207.396 232.527,207.255 232.160 C 207.117 231.801,207.182 231.398,207.399 231.264 C 207.615 231.130,207.851 230.677,207.923 230.256 C 208.156 228.887,209.133 226.563,209.477 226.563 C 209.661 226.563,209.703 226.387,209.570 226.172 C 209.438 225.957,209.496 225.781,209.700 225.781 C 209.903 225.781,210.442 224.990,210.896 224.023 C 211.351 223.057,211.898 222.266,212.111 222.266 C 212.325 222.266,212.500 222.002,212.500 221.680 C 212.500 221.357,212.774 221.094,213.109 221.094 C 213.444 221.094,213.618 220.932,213.496 220.735 C 213.277 220.380,213.457 220.152,215.280 218.484 C 215.792 218.016,216.409 217.400,216.651 217.117 C 216.894 216.833,217.421 216.306,217.823 215.945 C 218.226 215.585,218.785 215.009,219.066 214.667 C 219.348 214.325,219.731 214.140,219.917 214.255 C 220.104 214.370,220.368 214.114,220.503 213.685 C 220.639 213.257,220.880 212.947,221.039 212.996 C 221.368 213.099,225.908 210.115,226.108 209.666 C 226.180 209.503,226.399 209.469,226.596 209.591 C 226.792 209.712,226.953 209.615,226.953 209.375 C 226.953 209.135,227.129 209.047,227.344 209.180 C 227.559 209.312,227.734 209.225,227.734 208.984 C 227.734 208.744,227.910 208.656,228.125 208.789 C 228.340 208.922,228.516 208.834,228.516 208.594 C 228.516 208.354,228.663 208.248,228.842 208.359 C 229.022 208.470,229.980 208.129,230.971 207.602 C 231.962 207.074,233.441 206.537,234.258 206.408 C 235.074 206.278,235.915 206.067,236.126 205.937 C 236.513 205.699,237.593 205.485,238.672 205.433 C 238.994 205.418,239.725 205.229,240.296 205.014 C 240.867 204.798,241.922 204.593,242.640 204.557 C 243.358 204.521,243.901 204.360,243.848 204.199 C 243.794 204.038,243.750 203.768,243.750 203.599 C 243.750 203.430,243.442 203.267,243.066 203.238 C 242.690 203.208,241.855 202.970,241.211 202.709 C 237.784 201.318,224.700 200.834,223.162 202.041 C 222.902 202.245,222.522 202.307,222.316 202.180 C 222.110 202.052,221.883 202.116,221.811 202.321 C 221.739 202.525,221.069 202.800,220.323 202.930 C 219.576 203.060,218.832 203.377,218.668 203.634 C 218.505 203.891,218.366 203.926,218.359 203.711 C 218.352 203.457,218.247 203.460,218.060 203.719 C 217.722 204.189,215.560 205.245,215.137 205.146 C 214.976 205.109,214.844 205.264,214.844 205.492 C 214.844 205.719,214.679 205.804,214.477 205.679 C 214.275 205.554,213.929 205.764,213.708 206.144 C 213.486 206.525,213.300 206.664,213.293 206.454 C 213.287 206.243,212.832 206.507,212.284 207.039 C 209.667 209.579,209.269 209.920,209.550 209.375 C 209.717 209.053,209.219 209.437,208.442 210.228 C 207.666 211.019,207.031 211.842,207.031 212.057 C 207.031 212.271,206.460 212.848,205.762 213.338 C 204.510 214.217,204.185 214.598,204.293 215.059 C 204.323 215.188,204.015 215.588,203.607 215.948 C 203.200 216.307,202.381 217.437,201.787 218.457 C 201.193 219.478,200.560 220.313,200.380 220.313 C 200.088 220.313,199.484 221.614,199.433 222.351 C 199.423 222.505,199.110 222.985,198.739 223.419 C 198.368 223.852,197.954 224.649,197.818 225.189 C 197.683 225.730,197.404 226.172,197.200 226.172 C 196.996 226.172,196.938 226.348,197.070 226.563 C 197.203 226.777,197.163 226.953,196.981 226.953 C 196.799 226.953,196.621 227.346,196.585 227.826 C 196.549 228.306,196.334 228.761,196.109 228.836 C 195.883 228.911,195.798 229.134,195.919 229.330 C 196.040 229.527,195.943 229.688,195.703 229.688 C 195.463 229.688,195.375 229.863,195.508 230.078 C 195.641 230.293,195.569 230.469,195.348 230.469 C 195.127 230.469,195.048 230.732,195.171 231.055 C 195.295 231.377,195.191 231.641,194.941 231.641 C 194.690 231.641,194.594 231.816,194.727 232.031 C 194.859 232.246,194.782 232.422,194.554 232.422 C 194.327 232.422,194.141 232.861,194.141 233.398 C 194.141 233.936,194.003 234.375,193.836 234.375 C 193.391 234.375,192.590 236.685,192.823 237.294 C 192.933 237.579,192.831 237.929,192.598 238.073 C 192.365 238.217,192.276 238.499,192.399 238.699 C 192.523 238.899,192.453 239.063,192.243 239.063 C 192.033 239.063,191.666 239.973,191.428 241.087 C 191.189 242.200,190.826 243.312,190.622 243.559 C 190.417 243.805,190.172 244.432,190.076 244.953 C 189.980 245.473,189.889 245.942,189.873 245.996 C 189.857 246.050,189.859 246.206,189.877 246.343 C 189.895 246.480,189.729 246.704,189.507 246.841 C 189.286 246.978,188.998 247.701,188.868 248.448 C 188.737 249.194,188.464 249.863,188.261 249.935 C 188.057 250.007,187.891 250.392,187.891 250.791 C 187.891 251.190,187.712 251.627,187.494 251.762 C 187.275 251.897,187.198 252.171,187.321 252.371 C 187.445 252.571,187.350 252.734,187.109 252.734 C 186.869 252.734,186.781 252.910,186.914 253.125 C 187.047 253.340,186.959 253.516,186.719 253.516 C 186.479 253.516,186.391 253.691,186.523 253.906 C 186.656 254.121,186.619 254.297,186.440 254.297 C 186.091 254.297,184.864 256.466,184.681 257.407 C 184.620 257.720,184.269 258.318,183.900 258.735 C 183.532 259.152,183.308 259.620,183.404 259.774 C 183.499 259.929,183.230 260.457,182.804 260.947 C 182.379 261.437,182.031 261.978,182.031 262.149 C 182.031 262.320,181.595 262.930,181.062 263.506 C 180.529 264.081,180.188 264.705,180.304 264.893 C 180.420 265.081,180.318 265.234,180.078 265.234 C 179.838 265.234,179.732 265.382,179.844 265.561 C 179.955 265.741,179.533 266.488,178.906 267.222 C 178.279 267.955,177.759 268.774,177.750 269.043 C 177.742 269.312,177.559 269.531,177.344 269.531 C 177.129 269.531,176.953 269.800,176.953 270.129 C 176.953 270.458,176.689 270.829,176.367 270.952 C 176.045 271.076,175.781 271.353,175.781 271.568 C 175.781 271.782,175.345 272.301,174.812 272.720 C 174.279 273.139,173.868 273.604,173.898 273.753 C 174.011 274.314,173.341 275.377,173.006 275.170 C 172.814 275.051,172.656 275.148,172.656 275.386 C 172.656 275.624,172.173 276.264,171.582 276.808 C 170.991 277.352,170.771 277.678,171.094 277.531 C 171.416 277.385,170.956 277.942,170.071 278.769 C 169.186 279.597,168.350 280.598,168.214 280.994 C 168.077 281.390,167.616 281.806,167.190 281.917 C 166.764 282.029,166.511 282.276,166.629 282.466 C 166.747 282.657,166.559 282.813,166.211 282.813 C 165.863 282.813,165.675 282.968,165.793 283.159 C 166.023 283.532,165.087 284.488,164.786 284.187 C 164.686 284.087,164.028 284.617,163.323 285.364 C 162.618 286.112,161.881 286.624,161.685 286.503 C 161.489 286.381,161.328 286.497,161.328 286.761 C 161.328 287.024,161.212 287.124,161.071 286.983 C 160.930 286.841,160.596 286.906,160.330 287.128 C 158.635 288.534,142.353 289.142,138.267 287.952 C 137.098 287.611,140.163 283.203,141.569 283.203 C 141.856 283.203,142.309 282.941,142.575 282.621 C 142.840 282.302,143.204 282.131,143.384 282.242 C 143.564 282.353,143.904 282.082,144.141 281.641 C 144.377 281.199,144.723 280.932,144.910 281.047 C 145.097 281.163,145.515 280.992,145.839 280.668 C 146.163 280.343,146.617 280.078,146.847 280.078 C 147.077 280.078,147.266 279.892,147.266 279.664 C 147.266 279.437,147.441 279.359,147.656 279.492 C 147.871 279.625,148.047 279.537,148.047 279.297 C 148.047 279.057,148.223 278.969,148.438 279.102 C 148.652 279.234,148.828 279.157,148.828 278.929 C 148.828 278.702,149.070 278.516,149.366 278.516 C 149.662 278.516,150.122 278.254,150.387 277.934 C 150.653 277.614,150.990 277.427,151.137 277.518 C 151.592 277.798,152.318 277.153,152.451 276.350 C 152.520 275.930,152.826 275.146,153.130 274.609 C 153.434 274.072,153.705 273.369,153.731 273.047 C 153.757 272.725,153.890 272.197,154.026 271.875 C 154.163 271.553,154.376 270.762,154.501 270.117 C 154.787 268.642,155.001 267.773,155.078 267.773 C 155.183 267.773,155.894 264.700,156.071 263.477 C 156.134 263.047,156.214 262.695,156.249 262.695 C 156.285 262.695,156.368 262.256,156.434 261.719 C 156.500 261.182,156.669 260.303,156.809 259.766 C 157.915 255.534,157.863 237.709,156.736 234.766 C 156.530 234.229,156.441 233.563,156.538 233.288 C 156.635 233.012,156.513 232.544,156.267 232.247 C 156.021 231.951,155.731 231.210,155.621 230.600 C 155.512 229.991,155.256 229.433,155.053 229.361 C 154.849 229.289,154.782 229.069,154.903 228.873 C 155.025 228.676,154.938 228.516,154.711 228.516 C 154.483 228.516,154.341 228.318,154.395 228.076 C 154.448 227.834,154.283 227.560,154.026 227.465 C 153.595 227.306,152.832 229.786,153.060 230.608 C 153.111 230.791,152.951 231.185,152.704 231.481 C 152.458 231.778,152.350 232.266,152.465 232.565 C 152.580 232.863,152.519 233.263,152.330 233.452 C 152.014 233.768,151.602 235.895,151.395 238.281 C 151.348 238.818,151.180 239.545,151.021 239.897 C 150.862 240.248,150.699 241.170,150.659 241.946 C 150.619 242.721,150.472 243.357,150.332 243.358 C 150.192 243.359,150.114 243.887,150.159 244.531 C 150.204 245.176,150.127 245.703,149.990 245.703 C 149.852 245.703,149.723 245.923,149.703 246.191 C 149.683 246.460,149.625 247.346,149.574 248.161 C 149.523 248.976,149.332 249.735,149.148 249.848 C 148.965 249.961,148.917 250.218,149.040 250.418 C 149.398 250.996,148.551 250.839,147.921 250.209 C 147.607 249.895,147.125 249.587,146.852 249.526 C 146.578 249.464,146.025 249.100,145.624 248.716 C 145.222 248.332,144.724 248.123,144.517 248.251 C 144.310 248.379,144.141 248.292,144.141 248.058 C 144.141 247.823,143.833 247.518,143.457 247.378 C 143.081 247.239,142.378 246.673,141.895 246.121 C 141.412 245.569,141.016 245.275,141.016 245.467 C 141.016 245.660,140.576 245.343,140.039 244.763 C 139.502 244.184,139.063 243.813,139.063 243.939 C 139.063 244.286,132.929 237.932,132.222 236.852 C 131.883 236.335,131.443 236.013,131.244 236.136 C 131.045 236.259,130.770 235.913,130.633 235.368 C 130.496 234.822,130.158 234.375,129.882 234.375 C 129.437 234.375,128.902 233.577,128.943 232.974 C 128.951 232.853,128.568 232.415,128.091 232.002 C 127.614 231.588,127.383 231.244,127.577 231.238 C 127.771 231.231,127.649 231.011,127.305 230.749 C 126.961 230.488,126.670 230.186,126.658 230.078 C 126.583 229.439,125.599 227.734,125.305 227.734 C 125.112 227.734,125.063 227.559,125.195 227.344 C 125.328 227.129,125.265 226.953,125.054 226.953 C 124.844 226.953,124.556 226.426,124.414 225.781 C 124.272 225.137,123.984 224.609,123.774 224.609 C 123.564 224.609,123.491 224.449,123.612 224.252 C 123.734 224.056,123.654 223.835,123.436 223.763 C 123.218 223.690,122.962 223.232,122.869 222.746 C 122.775 222.259,122.425 221.588,122.091 221.254 C 121.434 220.597,121.276 220.138,121.823 220.476 C 122.010 220.591,121.885 220.074,121.547 219.327 C 121.208 218.580,120.781 217.969,120.599 217.969 C 120.416 217.969,120.358 217.821,120.469 217.641 C 120.581 217.460,120.362 216.713,119.983 215.981 C 119.107 214.284,119.135 213.138,120.057 212.959 C 120.824 212.810,121.404 212.381,123.970 210.065 C 125.562 208.629,127.894 208.126,128.550 209.078 C 128.676 209.261,129.379 209.451,130.112 209.500 C 130.845 209.549,131.631 209.706,131.858 209.849 C 132.658 210.353,145.075 210.448,147.656 209.970 C 148.408 209.831,149.375 209.683,149.805 209.641 C 150.234 209.599,150.817 209.417,151.100 209.236 C 151.383 209.054,151.718 209.010,151.846 209.137 C 151.973 209.264,152.269 209.221,152.503 209.042 C 152.738 208.862,153.809 208.495,154.883 208.226 C 155.957 207.956,157.100 207.637,157.422 207.515 C 157.744 207.394,158.096 207.273,158.203 207.246 C 158.311 207.220,158.750 207.003,159.180 206.763 C 159.609 206.523,160.049 206.333,160.156 206.341 C 160.710 206.382,164.453 204.539,164.453 204.226 C 164.453 204.025,164.629 203.969,164.844 204.102 C 165.059 204.234,165.234 204.128,165.234 203.864 C 165.234 203.601,165.347 203.498,165.484 203.635 C 165.621 203.772,166.250 203.450,166.881 202.919 C 167.512 202.388,168.269 201.953,168.563 201.953 C 168.856 201.953,169.370 201.562,169.704 201.085 C 170.039 200.607,170.313 200.354,170.313 200.521 C 170.313 200.688,170.766 200.332,171.321 199.729 C 171.875 199.126,172.197 198.896,172.036 199.219 C 171.874 199.541,173.179 198.372,174.934 196.621 C 176.689 194.870,178.125 193.286,178.125 193.101 C 178.125 192.915,178.564 192.434,179.102 192.030 C 179.639 191.627,180.078 191.058,180.078 190.766 C 180.078 190.473,180.264 190.234,180.492 190.234 C 180.719 190.234,180.804 190.069,180.679 189.868 C 180.554 189.666,180.764 189.320,181.144 189.098 C 181.525 188.877,181.677 188.690,181.483 188.684 C 181.289 188.677,181.525 188.330,182.007 187.911 C 182.490 187.493,182.770 186.966,182.630 186.739 C 182.490 186.513,182.572 186.328,182.813 186.328 C 183.053 186.328,183.141 186.152,183.008 185.938 C 182.875 185.723,182.963 185.547,183.203 185.547 C 183.443 185.547,183.531 185.371,183.398 185.156 C 183.266 184.941,183.354 184.766,183.594 184.766 C 183.834 184.766,183.922 184.590,183.789 184.375 C 183.656 184.160,183.744 183.984,183.984 183.984 C 184.225 183.984,184.325 183.829,184.207 183.638 C 184.089 183.448,184.263 183.068,184.592 182.794 C 184.922 182.521,185.106 182.073,185.001 181.799 C 184.896 181.525,184.983 181.243,185.196 181.172 C 185.408 181.101,185.609 180.606,185.643 180.072 C 185.677 179.538,185.827 179.014,185.977 178.906 C 186.371 178.624,186.776 176.001,186.909 172.861 L 187.025 170.136 186.286 171.049 C 185.879 171.551,185.547 172.373,185.547 172.875 C 185.547 173.378,185.297 173.930,184.992 174.102 C 184.688 174.273,184.380 174.678,184.309 175.000 C 184.238 175.322,183.872 175.816,183.496 176.096 C 183.120 176.377,182.813 176.833,182.813 177.110 C 182.813 177.386,182.373 178.124,181.836 178.748 C 181.300 179.372,180.860 180.027,180.860 180.204 C 180.860 180.380,180.599 180.820,180.280 181.180 C 179.333 182.252,177.786 184.083,176.517 185.634 C 175.863 186.434,175.122 187.049,174.871 187.001 C 174.620 186.953,174.458 187.134,174.512 187.402 C 174.565 187.671,174.478 187.863,174.316 187.829 C 173.756 187.710,172.656 188.368,172.656 188.822 C 172.656 189.074,172.305 189.581,171.875 189.948 C 171.445 190.316,171.094 190.487,171.093 190.328 C 171.093 190.169,170.698 190.499,170.214 191.060 C 169.731 191.622,169.160 192.104,168.945 192.131 C 168.730 192.159,168.245 192.446,167.867 192.770 C 167.488 193.094,167.005 193.359,166.792 193.359 C 166.580 193.359,166.406 193.535,166.406 193.750 C 166.406 193.965,166.161 194.141,165.862 194.141 C 165.563 194.141,165.213 194.415,165.084 194.751 C 164.955 195.087,164.698 195.269,164.513 195.154 C 164.329 195.040,163.844 195.199,163.436 195.508 C 163.029 195.816,162.407 196.074,162.054 196.081 C 161.701 196.088,161.306 196.369,161.177 196.704 C 161.048 197.040,160.766 197.206,160.550 197.072 C 160.333 196.938,160.156 197.025,160.156 197.266 C 160.156 197.506,159.995 197.602,159.797 197.480 C 159.600 197.358,159.204 197.492,158.918 197.778 C 158.632 198.064,158.264 198.316,158.099 198.338 C 156.650 198.532,155.469 198.960,155.469 199.292 C 155.469 199.512,155.205 199.592,154.883 199.468 C 154.561 199.344,154.297 199.421,154.297 199.639 C 154.297 199.856,154.077 199.991,153.809 199.939 C 153.222 199.824,150.354 200.367,149.827 200.693 C 149.622 200.820,149.093 200.969,148.653 201.024 C 148.212 201.080,147.324 201.226,146.680 201.350 C 143.252 202.007,133.801 202.059,134.333 201.417 C 134.624 201.068,134.708 200.778,134.520 200.773 C 134.333 200.769,135.304 199.714,136.679 198.429 C 138.054 197.145,139.026 196.094,138.838 196.094 C 138.651 196.094,138.889 195.820,139.366 195.486 C 139.844 195.151,140.234 194.634,140.234 194.336 C 140.234 194.038,140.585 193.549,141.013 193.249 C 141.441 192.949,141.676 192.587,141.534 192.445 C 141.392 192.304,141.467 192.187,141.700 192.188 C 142.166 192.188,143.998 189.435,143.845 188.965 C 143.793 188.804,143.955 188.672,144.206 188.672 C 144.456 188.672,144.547 188.557,144.407 188.418 C 144.267 188.278,144.421 187.967,144.750 187.727 C 145.078 187.487,145.415 186.766,145.498 186.126 C 145.581 185.485,145.675 184.961,145.706 184.961 C 145.737 184.961,145.824 184.638,145.899 184.243 C 145.974 183.848,146.329 183.200,146.688 182.803 C 147.048 182.406,147.227 181.894,147.086 181.665 C 146.944 181.437,147.025 181.250,147.266 181.250 C 147.506 181.250,147.594 181.074,147.461 180.859 C 147.328 180.645,147.416 180.469,147.656 180.469 C 147.896 180.469,148.004 180.324,147.895 180.148 C 147.786 179.971,147.920 179.395,148.194 178.868 C 148.467 178.341,148.619 177.694,148.532 177.431 C 148.444 177.168,148.548 176.953,148.763 176.953 C 149.292 176.953,149.057 174.379,148.462 173.662 C 146.970 171.865,142.362 171.708,142.139 173.448 C 142.086 173.857,141.952 174.432,141.799 174.902 C 141.747 175.063,141.725 175.327,141.751 175.488 C 141.776 175.649,141.611 175.781,141.383 175.781 C 141.156 175.781,141.071 175.945,141.194 176.145 C 141.318 176.345,141.237 176.621,141.016 176.758 C 140.794 176.895,140.714 177.172,140.839 177.374 C 140.963 177.575,140.791 177.845,140.457 177.973 C 140.122 178.102,139.945 178.364,140.064 178.557 C 140.183 178.749,140.094 178.906,139.867 178.906 C 139.639 178.906,139.453 179.066,139.453 179.260 C 139.453 179.455,138.541 180.554,137.427 181.702 C 136.312 182.850,135.549 183.525,135.729 183.203 C 135.910 182.881,135.538 183.101,134.902 183.691 C 134.267 184.282,133.360 184.766,132.889 184.766 C 132.417 184.766,132.031 184.936,132.031 185.144 C 132.031 185.352,131.768 185.421,131.445 185.298 C 131.123 185.174,130.859 185.239,130.859 185.443 C 130.859 186.241,120.103 186.248,119.306 185.452 C 119.173 185.319,118.818 185.305,118.516 185.420 C 118.215 185.536,117.969 185.425,117.969 185.175 C 117.969 184.924,117.797 184.826,117.586 184.956 C 116.854 185.409,113.392 182.832,113.964 182.260 C 114.080 182.144,113.885 181.939,113.532 181.803 C 113.179 181.668,112.891 181.312,112.891 181.013 C 112.891 180.714,112.715 180.469,112.500 180.469 C 112.285 180.469,112.109 180.152,112.109 179.766 C 112.109 179.379,111.950 178.896,111.755 178.691 C 110.896 177.792,111.098 174.450,112.073 173.438 C 112.591 172.900,112.865 172.725,112.683 173.047 C 112.501 173.369,113.220 172.777,114.282 171.732 C 115.343 170.686,116.606 169.567,117.090 169.245 C 117.573 168.923,117.969 168.440,117.969 168.172 C 117.969 167.903,118.333 167.220,118.778 166.654 C 119.224 166.088,119.443 165.622,119.267 165.619 C 119.090 165.616,119.190 165.458,119.490 165.268 C 119.859 165.035,120.026 164.189,120.009 162.638 C 119.973 159.240,119.924 158.984,119.312 158.984 C 119.003 158.984,118.750 158.779,118.750 158.529 C 118.750 158.278,118.632 158.190,118.489 158.334 C 118.345 158.478,117.906 158.304,117.512 157.948 C 117.119 157.592,116.794 157.460,116.791 157.654 C 116.788 157.849,116.640 157.779,116.463 157.500 C 116.285 157.220,115.629 156.924,115.004 156.843 C 114.379 156.761,113.867 156.668,113.867 156.635 C 113.867 156.067,105.320 155.833,103.320 156.347 C 102.461 156.567,101.538 156.753,101.270 156.759 C 101.001 156.766,100.781 156.917,100.781 157.096 C 100.781 157.275,100.539 157.422,100.243 157.422 C 99.947 157.422,99.491 157.680,99.229 157.995 C 98.967 158.311,98.638 158.546,98.498 158.519 C 97.931 158.409,96.894 159.090,97.106 159.433 C 97.231 159.635,97.120 160.056,96.861 160.369 C 96.601 160.682,96.504 160.938,96.646 160.938 C 96.787 160.938,96.722 161.274,96.502 161.686 C 96.034 162.560,96.634 166.407,97.304 166.820 C 97.534 166.963,97.708 167.192,97.690 167.329 C 97.594 168.045,97.750 168.341,98.798 169.438 C 99.426 170.095,99.858 170.715,99.758 170.815 C 99.657 170.915,100.383 171.709,101.371 172.578 L 103.166 174.158 103.100 177.802 C 103.063 179.806,102.857 181.665,102.641 181.934 C 102.425 182.202,102.358 182.422,102.491 182.422 C 102.625 182.422,102.427 182.746,102.051 183.141 C 101.675 183.537,101.235 183.790,101.074 183.704 C 100.913 183.618,100.781 183.715,100.781 183.920 C 100.781 184.998,95.163 185.733,93.098 184.926 C 92.418 184.659,91.758 184.544,91.633 184.669 C 91.508 184.794,91.406 184.691,91.406 184.440 C 91.406 184.189,91.143 183.984,90.820 183.984 C 90.498 183.984,90.234 183.798,90.234 183.571 C 90.234 183.343,90.103 183.220,89.941 183.297 C 89.780 183.374,89.176 182.944,88.599 182.343 C 88.022 181.742,87.666 181.250,87.807 181.250 C 87.949 181.250,87.674 180.976,87.196 180.642 C 86.719 180.307,86.328 179.780,86.328 179.470 C 86.328 179.160,86.142 178.906,85.914 178.906 C 85.687 178.906,85.600 178.745,85.722 178.549 C 85.843 178.352,85.764 178.132,85.545 178.059 C 85.327 177.987,85.066 177.501,84.966 176.981 C 84.866 176.460,84.560 175.892,84.286 175.718 C 84.013 175.545,83.942 175.400,84.130 175.397 C 84.317 175.393,84.273 175.153,84.032 174.862 C 83.666 174.421,83.010 169.470,83.145 168.164 C 83.167 167.949,83.255 166.895,83.342 165.820 C 83.428 164.746,83.540 163.779,83.592 163.672 C 83.644 163.564,83.667 163.351,83.645 163.197 C 83.622 163.043,83.774 162.468,83.983 161.917 C 84.192 161.367,84.463 160.438,84.585 159.853 C 84.866 158.502,84.951 158.224,85.443 157.031 C 85.665 156.494,85.768 155.923,85.673 155.762 C 85.578 155.601,85.697 155.469,85.937 155.469 C 86.178 155.469,86.273 155.305,86.149 155.105 C 86.026 154.905,86.106 154.629,86.328 154.492 C 86.550 154.355,86.643 154.099,86.534 153.924 C 86.426 153.748,86.597 153.389,86.914 153.125 C 87.232 152.861,87.395 152.490,87.277 152.299 C 87.160 152.109,87.260 151.953,87.500 151.953 C 87.740 151.953,87.828 151.777,87.695 151.563 C 87.563 151.348,87.650 151.172,87.891 151.172 C 88.131 151.172,88.227 151.010,88.105 150.813 C 87.983 150.615,88.140 150.197,88.454 149.883 C 88.768 149.569,88.916 149.203,88.783 149.070 C 88.650 148.937,88.757 148.828,89.020 148.828 C 89.284 148.828,89.397 148.663,89.272 148.461 C 89.147 148.259,89.434 147.731,89.909 147.289 C 90.384 146.846,90.621 146.484,90.435 146.484 C 90.250 146.484,90.482 146.076,90.951 145.576 C 91.420 145.077,91.689 144.554,91.549 144.414 C 91.409 144.274,91.582 144.049,91.934 143.914 C 92.286 143.779,92.476 143.510,92.356 143.316 C 92.236 143.122,92.412 142.858,92.746 142.730 C 93.081 142.601,93.263 142.348,93.151 142.166 C 93.039 141.985,93.308 141.643,93.750 141.406 C 94.192 141.170,94.449 140.808,94.322 140.603 C 94.195 140.397,94.366 140.123,94.702 139.995 C 95.038 139.866,95.313 139.580,95.313 139.359 C 95.313 139.139,95.796 138.542,96.387 138.034 C 96.978 137.526,97.319 137.110,97.146 137.110 C 96.973 137.110,97.500 136.474,98.318 135.697 C 99.136 134.920,99.558 134.420,99.256 134.585 C 98.891 134.785,98.801 134.735,98.986 134.435 C 99.139 134.187,99.518 133.984,99.828 133.984 C 100.137 133.984,100.391 133.846,100.391 133.677 C 100.391 133.203,103.816 129.688,104.278 129.688 C 104.503 129.688,104.688 129.413,104.688 129.079 C 104.688 128.744,104.854 128.573,105.059 128.699 C 105.263 128.825,105.617 128.577,105.847 128.148 C 106.076 127.720,107.077 126.748,108.071 125.989 C 109.065 125.230,109.758 124.609,109.611 124.609 C 109.464 124.609,109.571 124.364,109.848 124.064 C 110.125 123.765,110.475 123.594,110.625 123.685 C 110.775 123.776,111.089 123.494,111.322 123.058 C 111.555 122.622,111.912 122.266,112.116 122.266 C 112.602 122.266,116.674 119.655,116.993 119.139 C 117.130 118.918,117.405 118.838,117.605 118.962 C 117.805 119.086,117.969 118.990,117.969 118.750 C 117.969 118.510,118.145 118.422,118.359 118.555 C 118.574 118.687,118.750 118.600,118.750 118.359 C 118.750 118.119,118.926 118.031,119.141 118.164 C 119.355 118.297,119.531 118.209,119.531 117.969 C 119.531 117.729,119.707 117.641,119.922 117.773 C 120.137 117.906,120.313 117.866,120.313 117.684 C 120.313 117.503,120.692 117.325,121.156 117.290 C 121.620 117.255,122.104 117.086,122.230 116.914 C 122.357 116.742,122.812 116.540,123.242 116.465 C 123.672 116.390,124.136 116.147,124.273 115.927 C 124.410 115.706,124.702 115.636,124.923 115.773 C 125.143 115.909,125.384 115.839,125.458 115.617 C 125.532 115.395,126.379 115.119,127.340 115.003 C 128.301 114.887,129.178 114.655,129.290 114.487 C 129.401 114.318,129.756 114.168,130.078 114.153 C 130.400 114.138,131.104 114.013,131.641 113.876 C 132.178 113.738,132.881 113.562,133.203 113.484 C 133.525 113.405,133.789 113.313,133.789 113.279 C 133.789 112.909,148.324 112.746,151.172 113.084 C 153.687 113.383,155.271 113.776,155.522 114.165 C 155.659 114.377,156.230 114.551,156.792 114.551 C 157.353 114.551,157.813 114.734,157.813 114.958 C 157.813 115.181,157.928 115.249,158.070 115.108 C 158.211 114.966,158.562 115.046,158.851 115.286 C 159.139 115.525,159.375 115.599,159.375 115.450 C 159.375 115.301,159.644 115.447,159.972 115.776 C 160.301 116.104,160.828 116.274,161.144 116.153 C 161.460 116.031,161.719 116.137,161.719 116.388 C 161.719 116.638,161.863 116.754,162.040 116.645 C 162.216 116.536,162.792 116.670,163.319 116.944 C 163.847 117.217,164.484 117.373,164.735 117.289 C 165.809 116.931,166.795 117.936,166.343 118.928 C 166.103 119.455,166.049 120.185,166.222 120.581 C 166.391 120.970,166.508 121.404,166.481 121.545 C 166.453 121.686,167.041 122.266,167.786 122.834 C 168.531 123.403,169.143 123.727,169.147 123.555 C 169.150 123.383,169.289 123.457,169.457 123.721 C 169.624 123.984,170.192 124.269,170.720 124.354 C 171.849 124.537,173.169 123.951,172.838 123.415 C 172.711 123.210,172.881 122.936,173.215 122.808 C 173.550 122.679,173.740 122.439,173.638 122.274 C 173.536 122.109,173.880 121.512,174.403 120.948 C 174.926 120.383,175.246 119.922,175.116 119.922 C 174.985 119.922,175.389 119.462,176.013 118.899 C 176.638 118.337,176.902 118.013,176.600 118.179 C 176.298 118.344,176.781 117.750,177.674 116.857 C 178.567 115.965,179.429 115.231,179.590 115.228 C 179.751 115.224,180.296 114.785,180.801 114.252 C 181.307 113.720,181.857 113.369,182.025 113.473 C 182.193 113.576,182.790 113.299,183.353 112.857 C 183.915 112.415,184.375 112.162,184.375 112.296 C 184.375 112.429,184.683 112.360,185.059 112.142 C 186.026 111.582,190.643 111.901,191.059 112.557 M102.734 140.693 C 101.649 141.101,99.571 143.191,99.912 143.532 C 100.032 143.652,99.917 143.750,99.657 143.750 C 99.397 143.750,99.224 143.970,99.272 144.238 C 99.320 144.507,99.129 145.458,98.847 146.351 C 98.531 147.354,98.453 148.401,98.643 149.086 C 98.812 149.696,98.996 150.419,99.051 150.692 C 99.229 151.568,100.946 152.701,101.860 152.545 C 102.730 152.396,105.109 150.781,104.458 150.781 C 104.274 150.781,104.523 150.501,105.012 150.159 C 105.500 149.817,105.827 149.333,105.737 149.085 C 105.648 148.836,105.739 148.314,105.939 147.924 C 106.485 146.864,106.700 143.750,106.227 143.750 C 106.006 143.750,105.877 143.526,105.940 143.252 C 106.053 142.757,104.851 140.994,104.102 140.555 C 103.887 140.429,103.271 140.491,102.734 140.693 M143.262 142.457 C 142.886 142.555,142.578 142.828,142.578 143.062 C 142.578 143.297,142.466 143.378,142.329 143.241 C 141.987 142.899,139.785 144.511,140.037 144.918 C 140.148 145.098,140.061 145.305,139.842 145.378 C 139.051 145.642,138.330 152.344,139.093 152.344 C 139.316 152.344,139.391 152.520,139.258 152.734 C 139.125 152.949,139.232 153.125,139.495 153.125 C 139.759 153.125,139.858 153.241,139.717 153.382 C 138.863 154.236,143.051 157.005,144.853 156.778 C 147.536 156.439,151.083 152.999,150.209 151.584 C 150.087 151.387,150.180 151.107,150.416 150.961 C 150.675 150.801,150.734 150.288,150.565 149.664 C 150.411 149.097,150.236 148.281,150.175 147.852 C 150.115 147.422,150.028 147.026,149.984 146.973 C 149.939 146.919,149.880 146.717,149.854 146.525 C 149.753 145.804,147.202 142.962,146.850 143.179 C 146.649 143.304,146.484 143.201,146.484 142.950 C 146.484 142.700,146.226 142.594,145.911 142.715 C 145.596 142.836,145.234 142.767,145.107 142.561 C 144.868 142.175,144.435 142.150,143.262 142.457 M105.808 190.368 C 106.047 190.656,106.128 191.008,105.986 191.149 C 105.845 191.291,105.953 191.406,106.227 191.406 C 106.508 191.406,106.627 191.660,106.499 191.992 C 106.376 192.314,106.455 192.578,106.676 192.578 C 106.897 192.578,106.976 192.742,106.853 192.942 C 106.729 193.142,106.819 193.423,107.052 193.567 C 107.285 193.711,107.383 194.070,107.270 194.364 C 107.157 194.658,107.312 195.147,107.615 195.450 C 107.918 195.753,108.057 196.110,107.924 196.243 C 107.791 196.376,107.898 196.484,108.161 196.484 C 108.424 196.484,108.531 196.660,108.398 196.875 C 108.266 197.090,108.372 197.266,108.636 197.266 C 108.899 197.266,108.999 197.382,108.857 197.524 C 108.715 197.665,108.952 198.029,109.384 198.332 C 109.816 198.634,110.086 199.016,109.985 199.180 C 109.883 199.345,110.048 199.479,110.352 199.479 C 110.655 199.479,110.813 199.333,110.702 199.154 C 110.591 198.975,110.697 198.828,110.938 198.828 C 111.178 198.828,111.266 198.652,111.133 198.438 C 111.000 198.223,111.098 198.047,111.351 198.047 C 111.618 198.047,111.724 197.720,111.606 197.266 C 111.493 196.836,111.530 196.484,111.687 196.484 C 111.844 196.484,111.944 195.913,111.909 195.215 C 111.820 193.413,112.297 191.969,112.931 192.121 C 113.227 192.192,113.823 192.267,114.254 192.288 C 114.686 192.309,115.215 192.439,115.430 192.576 C 115.645 192.714,116.313 192.858,116.915 192.895 C 117.517 192.933,118.308 193.111,118.673 193.292 C 119.038 193.473,120.214 193.666,121.288 193.721 C 122.361 193.776,123.374 194.025,123.537 194.274 C 124.078 195.099,123.280 200.391,122.614 200.391 C 122.422 200.391,122.294 200.522,122.329 200.684 C 122.452 201.257,121.497 203.125,121.080 203.125 C 120.848 203.125,120.760 203.292,120.886 203.496 C 121.116 203.867,119.056 205.629,118.554 205.490 C 118.408 205.450,118.085 205.689,117.836 206.021 C 117.587 206.354,117.031 206.678,116.602 206.742 C 116.172 206.806,115.645 206.963,115.430 207.090 C 114.831 207.444,110.487 207.161,109.277 206.689 C 108.687 206.458,108.203 206.365,108.203 206.483 C 108.203 206.600,107.925 206.419,107.586 206.079 C 107.246 205.739,106.807 205.561,106.609 205.684 C 106.412 205.806,106.250 205.709,106.250 205.469 C 106.250 205.229,106.118 205.106,105.957 205.196 C 105.582 205.405,101.961 201.685,102.254 201.392 C 102.375 201.271,102.259 201.172,101.995 201.172 C 101.732 201.172,101.613 201.016,101.730 200.826 C 101.848 200.635,101.693 200.271,101.386 200.016 C 101.079 199.761,100.924 199.301,101.042 198.995 C 101.159 198.688,101.090 198.438,100.888 198.438 C 100.686 198.438,100.502 198.218,100.480 197.949 C 100.395 196.935,99.993 194.301,99.790 193.424 C 99.656 192.849,99.728 192.605,99.984 192.764 C 100.208 192.902,100.391 192.818,100.391 192.578 C 100.391 192.338,100.566 192.250,100.781 192.383 C 100.996 192.516,101.172 192.438,101.172 192.211 C 101.172 191.983,101.414 191.797,101.710 191.797 C 102.006 191.797,102.465 191.535,102.731 191.215 C 102.996 190.895,103.351 190.719,103.519 190.822 C 103.687 190.926,103.925 190.748,104.048 190.427 C 104.327 189.702,105.230 189.671,105.808 190.368 " stroke="none" fill="#3c2414" fill-rule="evenodd"></path><path id="path2" d="M102.481 192.316 C 100.564 193.490,100.480 193.611,100.681 194.918 C 102.709 208.118,118.932 210.831,122.497 198.566 C 123.503 195.105,123.345 194.858,119.727 194.257 C 118.008 193.971,115.774 193.498,114.763 193.206 C 112.541 192.563,112.506 192.591,112.478 195.085 C 112.400 202.069,108.984 201.525,106.366 194.111 C 105.130 190.613,105.206 190.647,102.481 192.316 " stroke="none" fill="#ece4d4" fill-rule="evenodd"></path><path id="path3" d="M186.822 103.796 C 187.416 103.886,188.294 103.883,188.775 103.791 C 189.255 103.698,188.770 103.624,187.695 103.627 C 186.621 103.630,186.228 103.706,186.822 103.796 M144.438 104.573 C 144.924 104.667,145.627 104.663,146.001 104.565 C 146.374 104.467,145.977 104.391,145.117 104.395 C 144.258 104.400,143.952 104.480,144.438 104.573 M197.046 106.574 C 197.677 107.255,198.346 107.813,198.534 107.813 C 199.087 107.813,198.503 107.129,197.156 106.202 L 195.898 105.336 197.046 106.574 M158.857 106.255 C 159.394 106.751,161.063 107.159,160.797 106.729 C 160.666 106.517,160.103 106.256,159.546 106.150 C 158.990 106.043,158.680 106.091,158.857 106.255 M170.262 110.621 C 170.769 111.293,171.875 111.180,171.875 110.457 C 171.875 110.205,171.687 110.217,171.358 110.490 C 170.979 110.804,170.697 110.791,170.303 110.440 C 169.851 110.038,169.844 110.067,170.262 110.621 M186.035 111.988 C 186.411 112.086,187.026 112.086,187.402 111.988 C 187.778 111.890,187.471 111.809,186.719 111.809 C 185.967 111.809,185.659 111.890,186.035 111.988 M136.133 112.891 L 134.961 113.189 136.012 113.235 C 136.590 113.260,137.172 113.105,137.305 112.891 C 137.437 112.676,137.492 112.521,137.425 112.546 C 137.359 112.572,136.777 112.727,136.133 112.891 M191.406 112.860 C 191.406 113.259,192.928 114.624,193.138 114.414 C 193.229 114.323,192.876 113.869,192.355 113.404 C 191.833 112.939,191.406 112.694,191.406 112.860 M181.083 113.895 C 180.669 114.198,180.406 114.520,180.498 114.612 C 180.590 114.705,181.004 114.532,181.417 114.230 C 181.831 113.927,182.094 113.605,182.002 113.513 C 181.910 113.420,181.496 113.593,181.083 113.895 M126.074 115.113 C 125.698 115.211,125.391 115.438,125.391 115.617 C 125.391 116.019,126.886 115.659,127.178 115.187 C 127.399 114.828,127.211 114.816,126.074 115.113 M177.607 116.859 C 176.785 117.717,176.434 118.247,176.826 118.036 C 177.636 117.602,179.851 115.217,179.398 115.267 C 179.235 115.285,178.429 116.001,177.607 116.859 M164.844 117.466 C 165.166 117.586,165.781 117.845,166.211 118.043 C 166.980 118.397,166.980 118.393,166.234 117.795 C 165.817 117.461,165.202 117.201,164.867 117.218 C 164.341 117.245,164.338 117.279,164.844 117.466 M194.638 119.922 C 194.638 120.889,194.714 121.284,194.807 120.801 C 194.900 120.317,194.900 119.526,194.807 119.043 C 194.714 118.560,194.638 118.955,194.638 119.922 M101.953 121.289 C 101.449 121.826,101.222 122.266,101.449 122.266 C 101.677 122.266,102.151 121.826,102.503 121.289 C 102.855 120.752,103.082 120.313,103.007 120.313 C 102.932 120.313,102.458 120.752,101.953 121.289 M174.067 121.277 C 173.711 121.821,173.557 122.266,173.725 122.266 C 174.105 122.266,175.116 120.689,174.885 120.458 C 174.791 120.364,174.424 120.733,174.067 121.277 M193.461 124.096 C 192.790 125.540,193.061 125.611,193.890 124.207 C 194.267 123.569,194.434 123.048,194.260 123.050 C 194.087 123.052,193.727 123.522,193.461 124.096 M192.037 126.744 C 191.161 128.081,191.248 128.427,192.188 127.344 C 192.899 126.524,193.198 125.781,192.818 125.781 C 192.736 125.781,192.384 126.215,192.037 126.744 M94.589 128.751 C 94.299 129.080,94.139 129.426,94.234 129.520 C 94.328 129.615,94.725 129.340,95.115 128.909 C 95.505 128.478,95.665 128.132,95.471 128.140 C 95.276 128.148,94.880 128.423,94.589 128.751 M199.460 130.844 C 198.893 131.926,198.512 132.813,198.613 132.813 C 198.928 132.813,200.886 129.271,200.683 129.068 C 200.576 128.962,200.026 129.761,199.460 130.844 M90.595 133.094 C 89.901 133.873,89.856 134.003,90.428 133.582 C 91.672 132.666,92.272 132.031,91.893 132.031 C 91.700 132.031,91.116 132.509,90.595 133.094 M197.521 133.917 C 196.484 135.064,198.033 138.035,199.108 136.960 C 199.224 136.843,198.858 136.537,198.293 136.280 C 197.113 135.743,196.984 134.943,197.912 133.917 C 198.268 133.525,198.471 133.203,198.363 133.203 C 198.256 133.203,197.877 133.525,197.521 133.917 M89.055 134.970 C 88.783 135.298,88.639 135.644,88.735 135.740 C 88.831 135.836,89.205 135.568,89.568 135.145 C 89.930 134.721,90.074 134.375,89.888 134.375 C 89.701 134.375,89.326 134.643,89.055 134.970 M186.230 135.142 C 185.236 136.111,185.391 136.504,186.397 135.566 C 186.865 135.130,187.173 134.707,187.081 134.625 C 186.989 134.543,186.606 134.775,186.230 135.142 M85.247 140.234 C 84.979 140.664,84.894 141.016,85.059 141.016 C 85.224 141.016,85.579 140.664,85.847 140.234 C 86.115 139.805,86.200 139.453,86.035 139.453 C 85.870 139.453,85.515 139.805,85.247 140.234 M205.469 140.196 C 205.469 140.364,206.190 140.717,207.072 140.982 C 207.954 141.246,208.964 141.563,209.318 141.687 C 209.750 141.838,209.833 141.782,209.570 141.516 C 209.029 140.967,205.469 139.821,205.469 140.196 M101.529 140.735 C 101.188 140.997,100.689 141.650,100.420 142.188 C 99.943 143.139,99.954 143.137,100.844 142.100 C 101.347 141.514,102.197 140.866,102.734 140.659 C 103.551 140.345,103.583 140.282,102.930 140.272 C 102.500 140.265,101.870 140.473,101.529 140.735 M83.469 143.075 L 82.758 144.336 83.613 143.498 C 84.083 143.037,84.403 142.469,84.323 142.237 C 84.244 142.005,83.860 142.382,83.469 143.075 M148.436 144.434 C 148.947 145.132,149.427 145.703,149.501 145.703 C 149.798 145.703,148.829 144.238,148.189 143.718 C 147.767 143.375,147.861 143.648,148.436 144.434 M194.922 144.850 C 194.922 145.035,195.361 145.387,195.898 145.632 C 196.436 145.877,196.875 146.013,196.875 145.935 C 196.875 145.857,196.436 145.505,195.898 145.153 C 195.361 144.801,194.922 144.665,194.922 144.850 M221.289 144.828 C 221.504 145.039,222.207 145.325,222.852 145.463 C 224.196 145.751,223.452 145.193,221.875 144.730 C 221.233 144.542,221.032 144.575,221.289 144.828 M138.873 146.866 C 138.434 147.575,138.182 151.065,138.553 151.294 C 138.763 151.423,138.852 151.052,138.761 150.431 C 138.673 149.832,138.779 148.699,138.996 147.913 C 139.384 146.508,139.337 146.114,138.873 146.866 M150.027 147.926 C 150.116 148.940,150.726 149.800,150.754 148.949 C 150.769 148.478,150.605 147.984,150.391 147.852 C 150.176 147.719,150.012 147.752,150.027 147.926 M231.836 148.047 C 232.911 148.509,233.293 148.509,233.008 148.047 C 232.875 147.832,232.381 147.669,231.911 147.684 C 231.085 147.710,231.083 147.723,231.836 148.047 M233.594 148.400 C 233.594 148.725,235.196 149.309,235.434 149.071 C 235.498 149.007,235.110 148.754,234.572 148.509 C 234.034 148.264,233.594 148.215,233.594 148.400 M148.723 154.690 C 148.162 155.548,147.771 156.250,147.855 156.250 C 148.157 156.250,150.104 153.490,149.927 153.312 C 149.827 153.212,149.285 153.832,148.723 154.690 M222.878 153.863 C 223.293 154.242,225.712 154.879,225.345 154.512 C 225.214 154.380,224.523 154.105,223.810 153.901 C 223.097 153.697,222.678 153.679,222.878 153.863 M78.104 154.937 C 77.889 155.504,77.801 156.056,77.910 156.165 C 78.086 156.341,78.278 155.930,78.736 154.395 C 79.013 153.465,78.495 153.910,78.104 154.937 M140.625 155.229 C 141.377 155.954,142.060 156.485,142.143 156.410 C 142.327 156.244,139.865 153.905,139.509 153.908 C 139.371 153.909,139.873 154.504,140.625 155.229 M230.406 156.285 C 231.338 156.728,232.198 156.995,232.316 156.877 C 232.539 156.654,231.367 156.138,229.688 155.721 C 229.150 155.588,229.474 155.841,230.406 156.285 M77.527 157.227 C 77.426 157.549,77.258 158.085,77.153 158.419 C 77.048 158.752,77.115 158.931,77.302 158.815 C 77.488 158.700,77.726 158.163,77.829 157.623 C 78.033 156.555,77.823 156.279,77.527 157.227 M144.629 156.910 C 145.005 157.008,145.620 157.008,145.996 156.910 C 146.372 156.812,146.064 156.731,145.313 156.731 C 144.561 156.731,144.253 156.812,144.629 156.910 M238.281 159.321 C 238.281 159.496,238.721 159.840,239.258 160.085 C 239.795 160.330,240.234 160.386,240.234 160.211 C 240.234 160.035,239.795 159.691,239.258 159.446 C 238.721 159.201,238.281 159.145,238.281 159.321 M242.188 161.273 C 242.188 161.674,243.371 162.228,243.644 161.955 C 243.739 161.860,243.450 161.586,243.002 161.346 C 242.554 161.106,242.188 161.073,242.188 161.273 M260.823 163.660 C 261.185 164.083,261.560 164.351,261.656 164.256 C 261.889 164.023,260.932 162.891,260.503 162.891 C 260.316 162.891,260.460 163.237,260.823 163.660 M263.801 166.040 C 264.514 167.145,266.395 168.892,266.624 168.662 C 266.704 168.582,265.956 167.734,264.962 166.778 C 263.855 165.713,263.405 165.427,263.801 166.040 M118.511 167.004 C 118.154 167.548,117.940 168.070,118.034 168.164 C 118.128 168.258,118.513 167.813,118.890 167.175 C 119.724 165.763,119.415 165.624,118.511 167.004 M254.297 169.032 C 254.297 169.524,255.413 170.498,255.676 170.236 C 255.779 170.132,255.512 169.728,255.081 169.338 C 254.650 168.948,254.297 168.810,254.297 169.032 M115.125 170.905 C 114.098 171.868,113.395 172.654,113.563 172.652 C 113.881 172.648,117.188 169.596,117.188 169.307 C 117.188 169.001,117.001 169.145,115.125 170.905 M101.349 172.982 C 102.952 174.672,103.130 174.806,103.118 174.316 C 103.114 174.155,102.367 173.423,101.458 172.689 L 99.805 171.354 101.349 172.982 M270.313 172.693 C 271.064 173.415,272.182 174.537,272.797 175.186 C 273.457 175.885,273.746 176.048,273.504 175.586 C 273.056 174.733,270.468 172.198,269.531 171.694 C 269.209 171.521,269.561 171.970,270.313 172.693 M142.528 172.525 C 142.038 173.119,142.075 173.132,142.969 172.667 C 144.278 171.987,144.377 171.875,143.668 171.875 C 143.336 171.875,142.823 172.167,142.528 172.525 M145.703 172.155 C 146.025 172.275,146.772 172.617,147.363 172.915 C 147.954 173.213,148.438 173.370,148.438 173.262 C 148.438 172.956,146.190 171.872,145.625 171.906 C 145.284 171.927,145.310 172.008,145.703 172.155 M83.502 173.650 C 83.604 174.184,83.816 174.701,83.975 174.799 C 84.133 174.896,84.179 174.540,84.077 174.006 C 83.975 173.472,83.762 172.955,83.604 172.858 C 83.445 172.760,83.399 173.117,83.502 173.650 M111.817 173.672 C 111.334 174.223,111.143 174.606,111.393 174.523 C 111.814 174.382,113.165 172.648,112.841 172.663 C 112.761 172.667,112.300 173.121,111.817 173.672 M259.715 173.733 C 260.122 174.493,262.891 177.108,262.891 176.732 C 262.891 176.601,262.094 175.719,261.120 174.772 C 260.147 173.826,259.514 173.358,259.715 173.733 M274.219 177.068 C 274.541 177.347,275.046 177.830,275.341 178.143 C 275.800 178.629,275.815 178.591,275.449 177.878 C 275.214 177.420,274.709 176.936,274.327 176.803 C 273.723 176.592,273.709 176.626,274.219 177.068 M111.356 177.614 C 111.340 178.084,111.504 178.578,111.719 178.711 C 112.181 178.996,112.181 178.614,111.719 177.539 C 111.395 176.786,111.382 176.789,111.356 177.614 M265.150 179.106 C 265.372 179.538,265.964 180.240,266.468 180.666 C 267.351 181.412,267.349 181.399,266.412 180.271 C 264.856 178.397,264.726 178.276,265.150 179.106 M179.822 181.118 C 179.432 181.728,178.846 182.456,178.521 182.736 C 178.024 183.165,178.070 183.178,178.809 182.820 C 179.292 182.586,179.688 182.237,179.688 182.045 C 179.688 181.853,179.972 181.412,180.320 181.064 C 180.668 180.716,180.858 180.337,180.742 180.221 C 180.626 180.105,180.212 180.509,179.822 181.118 M277.615 181.280 C 278.003 181.941,278.570 182.688,278.875 182.940 C 279.180 183.192,278.937 182.651,278.335 181.738 C 277.070 179.821,276.572 179.504,277.615 181.280 M88.599 182.336 C 89.176 182.934,89.722 183.373,89.813 183.311 C 90.038 183.159,88.218 181.250,87.847 181.250 C 87.684 181.250,88.022 181.739,88.599 182.336 M268.359 182.717 C 268.359 182.932,268.623 183.326,268.945 183.594 C 269.272 183.865,269.531 183.907,269.531 183.689 C 269.531 183.475,269.268 183.080,268.945 182.813 C 268.618 182.541,268.359 182.499,268.359 182.717 M133.789 184.011 C 133.071 184.471,132.859 184.762,133.240 184.764 C 133.583 184.765,134.181 184.414,134.570 183.984 C 135.429 183.035,135.305 183.040,133.789 184.011 M80.875 184.788 C 81.343 185.445,81.815 185.893,81.925 185.783 C 82.035 185.674,81.840 185.299,81.492 184.952 C 81.144 184.604,80.859 184.156,80.859 183.956 C 80.859 183.757,80.672 183.594,80.442 183.594 C 80.213 183.594,80.408 184.131,80.875 184.788 M114.844 183.779 C 114.844 184.077,117.242 185.232,117.443 185.030 C 117.544 184.930,117.062 184.565,116.371 184.220 C 115.016 183.545,114.844 183.495,114.844 183.779 M99.512 184.254 C 99.136 184.352,98.828 184.601,98.828 184.808 C 98.828 185.024,99.201 184.990,99.707 184.726 C 101.172 183.964,101.118 183.834,99.512 184.254 M176.249 185.273 C 174.758 186.810,174.564 187.653,176.012 186.299 C 176.936 185.434,177.950 183.984,177.629 183.984 C 177.557 183.984,176.935 184.564,176.249 185.273 M270.703 185.877 C 270.703 186.059,271.082 186.542,271.545 186.951 L 272.387 187.695 271.695 186.621 C 270.982 185.513,270.703 185.304,270.703 185.877 M273.138 189.844 C 273.406 190.273,273.760 190.625,273.925 190.625 C 274.090 190.625,274.006 190.273,273.737 189.844 C 273.469 189.414,273.115 189.063,272.950 189.063 C 272.785 189.063,272.869 189.414,273.138 189.844 M86.719 190.509 C 86.719 190.960,87.827 192.001,88.045 191.755 C 88.119 191.671,87.852 191.263,87.450 190.850 C 87.048 190.436,86.719 190.283,86.719 190.509 M283.665 191.992 C 283.910 192.529,284.254 192.969,284.429 192.969 C 284.605 192.969,284.549 192.529,284.304 191.992 C 284.059 191.455,283.715 191.016,283.539 191.016 C 283.364 191.016,283.420 191.455,283.665 191.992 M116.628 192.925 C 117.043 193.305,119.462 193.941,119.095 193.574 C 118.964 193.443,118.273 193.168,117.560 192.964 C 116.847 192.759,116.428 192.742,116.628 192.925 M140.625 193.555 C 140.349 193.887,140.211 194.247,140.318 194.355 C 140.426 194.462,140.740 194.278,141.016 193.945 C 141.292 193.613,141.430 193.253,141.322 193.145 C 141.215 193.038,140.901 193.222,140.625 193.555 M121.391 194.026 C 121.877 194.120,122.580 194.116,122.954 194.018 C 123.327 193.921,122.930 193.844,122.070 193.849 C 121.211 193.853,120.905 193.933,121.391 194.026 M175.140 196.366 C 173.821 197.710,173.030 198.652,173.382 198.458 C 174.206 198.006,177.938 194.197,177.711 194.040 C 177.616 193.975,176.459 195.022,175.140 196.366 M136.133 198.883 C 135.059 199.927,134.363 200.781,134.587 200.781 C 135.062 200.781,138.510 197.354,138.257 197.133 C 138.163 197.052,137.207 197.839,136.133 198.883 M122.900 198.877 C 122.575 200.505,122.890 200.821,123.242 199.219 C 123.390 198.543,123.430 197.910,123.331 197.810 C 123.231 197.711,123.038 198.191,122.900 198.877 M108.984 198.363 C 108.984 199.071,110.315 199.610,110.959 199.162 C 111.444 198.824,111.441 198.793,110.938 198.943 C 110.615 199.038,110.044 198.849,109.668 198.521 C 109.258 198.164,108.984 198.101,108.984 198.363 M171.289 199.609 C 170.900 200.039,170.779 200.391,171.019 200.391 C 171.260 200.391,171.645 200.039,171.875 199.609 C 172.105 199.180,172.226 198.828,172.145 198.828 C 172.063 198.828,171.678 199.180,171.289 199.609 M167.133 202.756 C 166.408 203.388,166.378 203.474,166.992 203.160 C 168.317 202.482,168.966 201.965,168.500 201.959 C 168.256 201.956,167.640 202.315,167.133 202.756 M240.456 202.297 C 241.015 202.805,243.613 203.613,243.129 203.129 C 242.904 202.904,242.129 202.551,241.406 202.344 C 240.683 202.136,240.256 202.115,240.456 202.297 M94.966 204.293 C 95.448 205.149,95.906 205.787,95.985 205.708 C 96.211 205.482,94.761 202.755,94.409 202.744 C 94.234 202.739,94.485 203.436,94.966 204.293 M243.858 203.909 C 243.900 204.466,244.037 204.545,244.418 204.229 C 245.051 203.703,245.047 203.647,244.362 203.384 C 243.988 203.241,243.820 203.416,243.858 203.909 M119.311 204.754 L 118.164 205.993 119.422 205.127 C 120.768 204.199,121.353 203.516,120.799 203.516 C 120.612 203.516,119.942 204.073,119.311 204.754 M216.504 204.219 C 215.806 204.555,215.234 204.965,215.234 205.131 C 215.234 205.367,216.644 204.779,217.936 204.004 C 218.668 203.565,217.500 203.741,216.504 204.219 M116.579 206.426 C 115.847 206.972,115.851 206.985,116.705 206.769 C 117.192 206.647,117.686 206.392,117.803 206.203 C 118.133 205.668,117.418 205.798,116.579 206.426 M96.484 206.627 C 96.484 206.834,96.880 207.211,97.363 207.465 C 98.237 207.924,98.238 207.922,97.498 207.088 C 96.671 206.157,96.484 206.072,96.484 206.627 M232.227 207.048 C 231.367 207.476,230.988 207.734,231.384 207.622 C 231.780 207.510,232.527 207.312,233.044 207.183 C 233.561 207.053,233.984 206.790,233.984 206.598 C 233.984 206.155,234.062 206.135,232.227 207.048 M211.224 207.471 C 210.630 207.914,209.947 208.656,209.705 209.119 C 209.362 209.778,209.487 209.727,210.279 208.887 C 210.835 208.296,211.456 207.813,211.658 207.813 C 211.860 207.813,212.127 207.549,212.251 207.227 C 212.531 206.496,212.533 206.495,211.224 207.471 M154.231 208.342 C 153.443 208.588,152.668 208.920,152.508 209.080 C 152.219 209.369,156.299 208.263,156.608 207.968 C 156.895 207.694,155.707 207.881,154.231 208.342 M98.828 209.180 C 99.333 209.717,99.890 210.156,100.066 210.156 C 100.241 210.156,100.003 209.717,99.536 209.180 C 99.069 208.643,98.513 208.203,98.299 208.203 C 98.085 208.203,98.324 208.643,98.828 209.180 M123.657 210.365 C 122.597 211.324,121.556 212.109,121.346 212.109 C 121.136 212.109,121.072 212.218,121.206 212.351 C 121.460 212.606,124.936 210.198,125.777 209.184 C 126.779 207.978,125.523 208.677,123.657 210.365 M281.920 209.381 C 282.222 210.537,282.731 210.688,282.515 209.558 C 282.414 209.028,282.192 208.594,282.022 208.594 C 281.853 208.594,281.806 208.948,281.920 209.381 M291.010 211.700 C 291.215 212.413,291.490 213.104,291.621 213.236 C 291.988 213.603,291.352 211.183,290.972 210.769 C 290.789 210.568,290.806 210.988,291.010 211.700 M103.516 212.054 C 103.516 212.455,104.699 213.010,104.972 212.736 C 105.067 212.641,104.778 212.367,104.330 212.127 C 103.882 211.887,103.516 211.854,103.516 212.054 M205.639 212.957 L 204.492 214.196 205.762 213.321 C 206.460 212.840,207.031 212.283,207.031 212.083 C 207.031 211.525,206.877 211.622,205.639 212.957 M201.419 218.351 C 200.443 219.827,200.015 220.894,200.719 220.098 C 201.261 219.484,202.811 216.797,202.623 216.797 C 202.526 216.797,201.985 217.496,201.419 218.351 M214.351 219.352 C 213.763 219.898,213.281 220.458,213.281 220.597 C 213.281 220.736,213.809 220.344,214.453 219.727 C 215.530 218.695,215.793 218.359,215.523 218.359 C 215.467 218.359,214.940 218.806,214.351 219.352 M211.360 222.988 C 210.722 224.180,210.854 224.512,211.563 223.499 C 211.907 223.008,212.097 222.514,211.986 222.402 C 211.874 222.290,211.592 222.554,211.360 222.988 M284.766 225.563 C 284.766 226.087,284.910 226.605,285.086 226.714 C 285.262 226.823,285.329 226.394,285.237 225.761 C 285.032 224.365,284.766 224.253,284.766 225.563 M208.525 228.129 C 207.680 230.141,207.957 230.138,208.984 228.125 C 209.423 227.266,209.646 226.564,209.481 226.566 C 209.315 226.569,208.885 227.272,208.525 228.129 M128.997 233.594 C 129.265 234.023,129.620 234.375,129.785 234.375 C 129.950 234.375,129.865 234.023,129.597 233.594 C 129.329 233.164,128.974 232.813,128.809 232.813 C 128.644 232.813,128.729 233.164,128.997 233.594 M205.373 239.258 C 205.270 239.795,205.338 240.234,205.523 240.234 C 205.708 240.234,205.859 239.795,205.859 239.258 C 205.859 238.721,205.792 238.281,205.710 238.281 C 205.627 238.281,205.476 238.721,205.373 239.258 M137.509 242.480 C 138.220 243.393,138.896 244.047,139.011 243.932 C 139.125 243.818,138.543 243.071,137.717 242.272 L 136.216 240.820 137.509 242.480 M190.709 242.443 C 190.468 243.228,190.426 243.711,190.616 243.517 C 190.998 243.126,191.591 241.016,191.319 241.016 C 191.224 241.016,190.950 241.658,190.709 242.443 M205.177 244.336 C 205.181 245.195,205.261 245.501,205.354 245.015 C 205.448 244.529,205.444 243.826,205.347 243.452 C 205.249 243.079,205.172 243.477,205.177 244.336 M140.068 244.871 C 140.482 245.273,140.889 245.541,140.974 245.467 C 141.220 245.249,140.178 244.141,139.728 244.141 C 139.501 244.141,139.655 244.470,140.068 244.871 M113.418 253.125 C 113.418 254.951,113.485 255.698,113.567 254.785 C 113.650 253.872,113.650 252.378,113.567 251.465 C 113.485 250.552,113.418 251.299,113.418 253.125 M205.535 251.953 C 205.555 252.968,206.170 254.635,206.184 253.711 C 206.190 253.281,206.044 252.578,205.859 252.148 C 205.654 251.670,205.528 251.594,205.535 251.953 M340.625 254.643 C 340.625 254.833,341.108 255.298,341.699 255.675 L 342.773 256.363 341.826 255.330 C 340.803 254.213,340.625 254.111,340.625 254.643 M142.876 260.966 C 142.503 261.184,141.996 261.750,141.751 262.224 C 141.384 262.934,141.521 262.883,142.527 261.939 C 144.069 260.492,144.169 260.213,142.876 260.966 M110.334 266.128 C 109.615 266.962,109.320 267.578,109.645 267.566 C 109.819 267.559,110.277 267.120,110.663 266.589 C 111.368 265.621,111.098 265.242,110.334 266.128 M178.582 267.040 C 178.081 267.812,177.853 268.332,178.075 268.195 C 178.693 267.813,180.175 265.624,179.812 265.630 C 179.636 265.632,179.083 266.267,178.582 267.040 M146.094 268.718 C 146.094 268.915,145.976 269.384,145.832 269.759 C 145.667 270.188,145.722 270.347,145.980 270.187 C 146.520 269.854,146.902 268.359,146.448 268.359 C 146.253 268.359,146.094 268.521,146.094 268.718 M104.297 270.744 C 102.686 271.595,101.807 272.175,102.344 272.033 C 103.535 271.718,105.777 270.588,106.836 269.770 C 108.023 268.852,107.501 269.052,104.297 270.744 M270.953 271.643 C 269.758 273.210,269.547 274.012,270.696 272.618 C 271.122 272.102,271.667 271.448,271.907 271.166 C 272.148 270.883,272.263 270.571,272.164 270.471 C 272.065 270.372,271.520 270.900,270.953 271.643 M143.532 272.820 C 143.116 273.124,142.878 273.477,143.004 273.603 C 143.131 273.730,143.553 273.480,143.943 273.049 C 144.773 272.132,144.603 272.037,143.532 272.820 M130.469 276.105 C 129.584 276.968,129.573 277.016,130.349 276.613 C 130.821 276.368,131.322 275.981,131.463 275.753 C 131.943 274.975,131.447 275.151,130.469 276.105 M229.349 276.258 C 229.700 276.543,230.075 277.124,230.183 277.549 C 230.360 278.248,230.382 278.240,230.423 277.455 C 230.452 276.916,230.138 276.430,229.590 276.164 C 228.832 275.797,228.799 275.810,229.349 276.258 M265.093 278.499 C 264.096 279.564,263.288 280.575,263.297 280.745 C 263.306 280.915,263.833 280.446,264.469 279.702 C 265.105 278.958,266.109 277.954,266.699 277.470 C 267.290 276.986,267.578 276.584,267.339 276.577 C 267.099 276.569,266.089 277.434,265.093 278.499 M180.664 278.699 C 180.020 279.227,179.681 279.666,179.912 279.673 C 180.143 279.681,180.745 279.248,181.250 278.711 C 182.416 277.470,182.169 277.465,180.664 278.699 M127.539 279.480 C 126.895 280.008,126.556 280.447,126.787 280.455 C 127.018 280.462,127.620 280.029,128.125 279.492 C 129.291 278.251,129.044 278.246,127.539 279.480 M134.180 279.297 C 133.791 279.727,133.648 280.078,133.863 280.078 C 134.078 280.078,134.572 279.727,134.961 279.297 C 135.350 278.867,135.492 278.516,135.277 278.516 C 135.062 278.516,134.569 278.867,134.180 279.297 M189.103 279.896 C 187.436 281.795,187.567 282.092,189.258 280.246 C 190.010 279.425,190.625 278.700,190.625 278.635 C 190.625 278.295,190.199 278.648,189.103 279.896 M227.930 279.688 C 227.437 279.899,227.365 280.023,227.734 280.023 C 228.057 280.023,228.672 279.872,229.102 279.688 C 229.594 279.476,229.666 279.352,229.297 279.352 C 228.975 279.352,228.359 279.503,227.930 279.688 M167.385 281.248 C 166.995 281.679,166.857 282.031,167.079 282.031 C 167.571 282.031,168.545 280.915,168.282 280.652 C 168.179 280.549,167.775 280.817,167.385 281.248 M131.230 282.248 C 130.714 282.797,130.555 283.145,130.877 283.022 C 131.386 282.827,132.650 281.250,132.298 281.250 C 132.226 281.250,131.745 281.699,131.230 282.248 M122.266 285.220 C 120.869 286.544,120.078 287.435,120.508 287.202 C 121.283 286.781,125.332 282.812,124.985 282.813 C 124.886 282.813,123.662 283.897,122.266 285.220 M140.458 283.817 C 139.528 284.746,139.723 284.988,140.723 284.147 C 141.206 283.740,141.675 283.361,141.764 283.305 C 141.854 283.249,141.735 283.203,141.499 283.203 C 141.264 283.203,140.795 283.479,140.458 283.817 M174.786 284.863 L 173.242 286.523 174.902 284.979 C 175.815 284.130,176.563 283.383,176.563 283.319 C 176.563 283.024,176.222 283.319,174.786 284.863 M200.098 283.606 C 198.745 284.150,199.057 284.389,200.488 283.906 C 201.187 283.671,201.831 283.416,201.921 283.340 C 202.238 283.072,200.963 283.258,200.098 283.606 M162.598 285.525 C 162.114 285.928,161.719 286.363,161.719 286.492 C 161.719 286.880,163.252 285.796,163.457 285.262 C 163.700 284.629,163.655 284.642,162.598 285.525 M252.637 286.942 C 252.046 287.263,251.563 287.603,251.563 287.699 C 251.563 287.917,253.580 287.073,254.082 286.645 C 254.694 286.123,253.813 286.304,252.637 286.942 M169.914 289.533 L 168.641 291.211 170.107 289.725 C 170.913 288.908,171.486 288.153,171.380 288.047 C 171.275 287.941,170.615 288.610,169.914 289.533 M116.211 289.721 L 115.039 290.268 116.210 290.024 C 117.420 289.772,117.827 289.555,117.546 289.313 C 117.456 289.236,116.855 289.420,116.211 289.721 M240.137 289.345 C 240.835 289.432,241.978 289.432,242.676 289.345 C 243.374 289.258,242.803 289.188,241.406 289.188 C 240.010 289.188,239.438 289.258,240.137 289.345 M328.418 290.504 C 328.042 290.602,327.734 290.851,327.734 291.058 C 327.734 291.274,328.107 291.240,328.613 290.976 C 330.078 290.214,330.024 290.084,328.418 290.504 M166.309 292.611 C 165.933 293.022,165.774 293.359,165.955 293.359 C 166.137 293.359,166.603 293.008,166.992 292.578 C 167.381 292.148,167.540 291.812,167.346 291.829 C 167.151 291.847,166.685 292.199,166.309 292.611 M128.787 294.167 C 129.175 294.826,129.820 295.661,130.220 296.022 C 130.697 296.453,130.562 296.045,129.829 294.837 C 129.214 293.823,128.569 292.988,128.396 292.981 C 128.223 292.974,128.398 293.508,128.787 294.167 M183.549 294.414 C 184.048 295.384,185.583 296.578,185.911 296.251 C 186.029 296.132,185.817 295.862,185.440 295.651 C 185.062 295.440,184.383 294.882,183.930 294.411 L 183.107 293.555 183.549 294.414 M160.978 295.736 C 160.464 295.942,160.120 296.188,160.214 296.282 C 160.495 296.563,162.109 296.031,162.109 295.658 C 162.109 295.468,162.065 295.324,162.012 295.337 C 161.958 295.351,161.493 295.530,160.978 295.736 M132.316 296.376 C 133.009 296.462,134.239 296.463,135.050 296.379 C 135.860 296.294,135.293 296.224,133.789 296.222 C 132.285 296.220,131.622 296.289,132.316 296.376 M241.309 296.775 C 243.081 296.847,245.981 296.847,247.754 296.775 C 249.526 296.703,248.076 296.643,244.531 296.643 C 240.986 296.643,239.536 296.703,241.309 296.775 M277.641 296.761 C 278.127 296.854,278.830 296.851,279.204 296.753 C 279.577 296.655,279.180 296.579,278.320 296.583 C 277.461 296.587,277.155 296.667,277.641 296.761 " stroke="none" fill="#442714" fill-rule="evenodd"></path><path id="path4" d="" stroke="none" fill="#d4688c" fill-rule="evenodd"></path></g></svg>